<?xml version="1.0" encoding="UTF-8" standalone="no"?>
<!DOCTYPE svg PUBLIC "-//W3C//DTD SVG 1.1//EN"
 "http://www.w3.org/Graphics/SVG/1.1/DTD/svg11.dtd">
<!-- Generated by graphviz version 2.40.1 (20161225.0304)
 -->
<!-- Title: state transitions Pages: 1 -->
<svg width="404pt" height="270pt"
 viewBox="0.00 0.00 403.57 270.00" xmlns="http://www.w3.org/2000/svg" xmlns:xlink="http://www.w3.org/1999/xlink">
<g id="graph0" class="graph" transform="scale(1 1) rotate(0) translate(4 266)">
<title>state transitions</title>
<polygon fill="#ffffff" stroke="transparent" points="-4,4 -4,-266 399.568,-266 399.568,4 -4,4"/>
<g id="clust1" class="cluster state regular">
<title>cluster_state</title>
<path fill="none" stroke="#000000" stroke-width="2" d="M20,-8C20,-8 347,-8 347,-8 353,-8 359,-14 359,-20 359,-20 359,-242 359,-242 359,-248 353,-254 347,-254 347,-254 20,-254 20,-254 14,-254 8,-248 8,-242 8,-242 8,-20 8,-20 8,-14 14,-8 20,-8"/>
<text text-anchor="start" x="170.4944" y="-235.2" font-family="Helvetica,sans-Serif" font-size="12.00" fill="#000000">state</text>
</g>
<!-- state -->
<!-- idle_st -->
<g id="node2" class="node state regular">
<title>idle_st</title>
<polygon fill="#ffffff" fill-opacity="0.003922" stroke="transparent" stroke-width="2" points="143,-216 87,-216 87,-180 143,-180 143,-216"/>
<text text-anchor="start" x="97.6636" y="-194.2" font-family="Helvetica,sans-Serif" font-size="12.00" fill="#000000">idle_st</text>
<path fill="none" stroke="#000000" stroke-width="2" d="M99.3333,-181C99.3333,-181 130.6667,-181 130.6667,-181 136.3333,-181 142,-186.6667 142,-192.3333 142,-192.3333 142,-203.6667 142,-203.6667 142,-209.3333 136.3333,-215 130.6667,-215 130.6667,-215 99.3333,-215 99.3333,-215 93.6667,-215 88,-209.3333 88,-203.6667 88,-203.6667 88,-192.3333 88,-192.3333 88,-186.6667 93.6667,-181 99.3333,-181"/>
</g>
<!-- active_st -->
<g id="node3" class="node state regular">
<title>active_st</title>
<polygon fill="#ffffff" fill-opacity="0.003922" stroke="transparent" stroke-width="2" points="85.5,-134 16.5,-134 16.5,-98 85.5,-98 85.5,-134"/>
<text text-anchor="start" x="27.8276" y="-112.2" font-family="Helvetica,sans-Serif" font-size="12.00" fill="#000000">active_st</text>
<path fill="none" stroke="#000000" stroke-width="2" d="M28.8333,-99C28.8333,-99 73.1667,-99 73.1667,-99 78.8333,-99 84.5,-104.6667 84.5,-110.3333 84.5,-110.3333 84.5,-121.6667 84.5,-121.6667 84.5,-127.3333 78.8333,-133 73.1667,-133 73.1667,-133 28.8333,-133 28.8333,-133 23.1667,-133 17.5,-127.3333 17.5,-121.6667 17.5,-121.6667 17.5,-110.3333 17.5,-110.3333 17.5,-104.6667 23.1667,-99 28.8333,-99"/>
</g>
<!-- idle_st&#45;&gt;active_st -->
<g id="edge1" class="edge transition">
<title>idle_st&#45;&gt;active_st</title>
<path fill="none" stroke="#000000" d="M86.9444,-188.589C74.9304,-183.0697 61.9818,-174.8076 54.566,-163 51.0815,-157.4518 49.4277,-150.777 48.8004,-144.2228"/>
<polygon fill="#000000" stroke="#000000" points="52.2987,-144.1091 48.5439,-134.202 45.301,-144.2883 52.2987,-144.1091"/>
<text text-anchor="start" x="54" y="-154" font-family="Helvetica,sans-Serif" font-size="10.00" fill="#000000">fsclk = &#39;1&#39; and fsclk_q = &#39;0&#39; &#160;&#160;</text>
</g>
<!-- ready_out_st -->
<g id="node4" class="node state regular">
<title>ready_out_st</title>
<polygon fill="#ffffff" fill-opacity="0.003922" stroke="transparent" stroke-width="2" points="148.5,-52 57.5,-52 57.5,-16 148.5,-16 148.5,-52"/>
<text text-anchor="start" x="68.82" y="-30.2" font-family="Helvetica,sans-Serif" font-size="12.00" fill="#000000">ready_out_st</text>
<path fill="none" stroke="#000000" stroke-width="2" d="M69.8333,-17C69.8333,-17 136.1667,-17 136.1667,-17 141.8333,-17 147.5,-22.6667 147.5,-28.3333 147.5,-28.3333 147.5,-39.6667 147.5,-39.6667 147.5,-45.3333 141.8333,-51 136.1667,-51 136.1667,-51 69.8333,-51 69.8333,-51 64.1667,-51 58.5,-45.3333 58.5,-39.6667 58.5,-39.6667 58.5,-28.3333 58.5,-28.3333 58.5,-22.6667 64.1667,-17 69.8333,-17"/>
</g>
<!-- active_st&#45;&gt;ready_out_st -->
<g id="edge2" class="edge transition">
<title>active_st&#45;&gt;ready_out_st</title>
<path fill="none" stroke="#000000" d="M49.1194,-97.5495C49.019,-88.4249 50.2057,-77.5626 55.029,-69 57.0213,-65.4632 59.5355,-62.1864 62.3641,-59.1733"/>
<polygon fill="#000000" stroke="#000000" points="64.9274,-61.5712 69.9242,-52.2286 60.192,-56.416 64.9274,-61.5712"/>
<text text-anchor="start" x="55" y="-72" font-family="Helvetica,sans-Serif" font-size="10.00" fill="#000000">not (counter &gt; 0) &#160;&#160;</text>
</g>
<!-- ready_out_st&#45;&gt;idle_st -->
<g id="edge3" class="edge transition">
<title>ready_out_st&#45;&gt;idle_st</title>
<path fill="none" stroke="#000000" d="M123.4138,-52.2656C128.522,-57.3905 133.751,-63.1647 138,-69 162.103,-102.1012 170.399,-111.1947 180,-151 181.2505,-156.1847 182.7349,-158.4212 180,-163 173.7985,-173.3827 163.3378,-180.8665 152.6002,-186.1779"/>
<polygon fill="#000000" stroke="#000000" points="150.9446,-183.0821 143.1929,-190.3045 153.7566,-189.4925 150.9446,-183.0821"/>
<text text-anchor="start" x="175" y="-113" font-family="Helvetica,sans-Serif" font-size="10.00" fill="#000000">Av_S_AUDIO_OUT_ready=&#39;1&#39; and valid_out=&#39;0&#39; &#160;&#160;</text>
</g>
</g>
</svg>
