%TF.GenerationSoftware,KiCad,Pcbnew,9.0.7*%
%TF.CreationDate,2026-02-04T19:08:30+01:00*%
%TF.ProjectId,v1,76312e6b-6963-4616-945f-706362585858,rev?*%
%TF.SameCoordinates,Original*%
%TF.FileFunction,Legend,Bot*%
%TF.FilePolarity,Positive*%
%FSLAX46Y46*%
G04 Gerber Fmt 4.6, Leading zero omitted, Abs format (unit mm)*
G04 Created by KiCad (PCBNEW 9.0.7) date 2026-02-04 19:08:30*
%MOMM*%
%LPD*%
G01*
G04 APERTURE LIST*
%ADD10C,0.150000*%
%ADD11C,0.120000*%
%TA.AperFunction,Profile*%
%ADD12C,0.050000*%
%TD*%
G04 APERTURE END LIST*
D10*
X66469047Y-128224819D02*
X66802380Y-127748628D01*
X67040475Y-128224819D02*
X67040475Y-127224819D01*
X67040475Y-127224819D02*
X66659523Y-127224819D01*
X66659523Y-127224819D02*
X66564285Y-127272438D01*
X66564285Y-127272438D02*
X66516666Y-127320057D01*
X66516666Y-127320057D02*
X66469047Y-127415295D01*
X66469047Y-127415295D02*
X66469047Y-127558152D01*
X66469047Y-127558152D02*
X66516666Y-127653390D01*
X66516666Y-127653390D02*
X66564285Y-127701009D01*
X66564285Y-127701009D02*
X66659523Y-127748628D01*
X66659523Y-127748628D02*
X67040475Y-127748628D01*
X66135713Y-127224819D02*
X65469047Y-127224819D01*
X65469047Y-127224819D02*
X65897618Y-128224819D01*
X64564285Y-128224819D02*
X65135713Y-128224819D01*
X64849999Y-128224819D02*
X64849999Y-127224819D01*
X64849999Y-127224819D02*
X64945237Y-127367676D01*
X64945237Y-127367676D02*
X65040475Y-127462914D01*
X65040475Y-127462914D02*
X65135713Y-127510533D01*
X63611904Y-128224819D02*
X64183332Y-128224819D01*
X63897618Y-128224819D02*
X63897618Y-127224819D01*
X63897618Y-127224819D02*
X63992856Y-127367676D01*
X63992856Y-127367676D02*
X64088094Y-127462914D01*
X64088094Y-127462914D02*
X64183332Y-127510533D01*
X97054819Y-125404761D02*
X96578628Y-125071428D01*
X97054819Y-124833333D02*
X96054819Y-124833333D01*
X96054819Y-124833333D02*
X96054819Y-125214285D01*
X96054819Y-125214285D02*
X96102438Y-125309523D01*
X96102438Y-125309523D02*
X96150057Y-125357142D01*
X96150057Y-125357142D02*
X96245295Y-125404761D01*
X96245295Y-125404761D02*
X96388152Y-125404761D01*
X96388152Y-125404761D02*
X96483390Y-125357142D01*
X96483390Y-125357142D02*
X96531009Y-125309523D01*
X96531009Y-125309523D02*
X96578628Y-125214285D01*
X96578628Y-125214285D02*
X96578628Y-124833333D01*
X97054819Y-126357142D02*
X97054819Y-125785714D01*
X97054819Y-126071428D02*
X96054819Y-126071428D01*
X96054819Y-126071428D02*
X96197676Y-125976190D01*
X96197676Y-125976190D02*
X96292914Y-125880952D01*
X96292914Y-125880952D02*
X96340533Y-125785714D01*
X96054819Y-126976190D02*
X96054819Y-127071428D01*
X96054819Y-127071428D02*
X96102438Y-127166666D01*
X96102438Y-127166666D02*
X96150057Y-127214285D01*
X96150057Y-127214285D02*
X96245295Y-127261904D01*
X96245295Y-127261904D02*
X96435771Y-127309523D01*
X96435771Y-127309523D02*
X96673866Y-127309523D01*
X96673866Y-127309523D02*
X96864342Y-127261904D01*
X96864342Y-127261904D02*
X96959580Y-127214285D01*
X96959580Y-127214285D02*
X97007200Y-127166666D01*
X97007200Y-127166666D02*
X97054819Y-127071428D01*
X97054819Y-127071428D02*
X97054819Y-126976190D01*
X97054819Y-126976190D02*
X97007200Y-126880952D01*
X97007200Y-126880952D02*
X96959580Y-126833333D01*
X96959580Y-126833333D02*
X96864342Y-126785714D01*
X96864342Y-126785714D02*
X96673866Y-126738095D01*
X96673866Y-126738095D02*
X96435771Y-126738095D01*
X96435771Y-126738095D02*
X96245295Y-126785714D01*
X96245295Y-126785714D02*
X96150057Y-126833333D01*
X96150057Y-126833333D02*
X96102438Y-126880952D01*
X96102438Y-126880952D02*
X96054819Y-126976190D01*
X96054819Y-127928571D02*
X96054819Y-128023809D01*
X96054819Y-128023809D02*
X96102438Y-128119047D01*
X96102438Y-128119047D02*
X96150057Y-128166666D01*
X96150057Y-128166666D02*
X96245295Y-128214285D01*
X96245295Y-128214285D02*
X96435771Y-128261904D01*
X96435771Y-128261904D02*
X96673866Y-128261904D01*
X96673866Y-128261904D02*
X96864342Y-128214285D01*
X96864342Y-128214285D02*
X96959580Y-128166666D01*
X96959580Y-128166666D02*
X97007200Y-128119047D01*
X97007200Y-128119047D02*
X97054819Y-128023809D01*
X97054819Y-128023809D02*
X97054819Y-127928571D01*
X97054819Y-127928571D02*
X97007200Y-127833333D01*
X97007200Y-127833333D02*
X96959580Y-127785714D01*
X96959580Y-127785714D02*
X96864342Y-127738095D01*
X96864342Y-127738095D02*
X96673866Y-127690476D01*
X96673866Y-127690476D02*
X96435771Y-127690476D01*
X96435771Y-127690476D02*
X96245295Y-127738095D01*
X96245295Y-127738095D02*
X96150057Y-127785714D01*
X96150057Y-127785714D02*
X96102438Y-127833333D01*
X96102438Y-127833333D02*
X96054819Y-127928571D01*
X96054819Y-128595238D02*
X96054819Y-129214285D01*
X96054819Y-129214285D02*
X96435771Y-128880952D01*
X96435771Y-128880952D02*
X96435771Y-129023809D01*
X96435771Y-129023809D02*
X96483390Y-129119047D01*
X96483390Y-129119047D02*
X96531009Y-129166666D01*
X96531009Y-129166666D02*
X96626247Y-129214285D01*
X96626247Y-129214285D02*
X96864342Y-129214285D01*
X96864342Y-129214285D02*
X96959580Y-129166666D01*
X96959580Y-129166666D02*
X97007200Y-129119047D01*
X97007200Y-129119047D02*
X97054819Y-129023809D01*
X97054819Y-129023809D02*
X97054819Y-128738095D01*
X97054819Y-128738095D02*
X97007200Y-128642857D01*
X97007200Y-128642857D02*
X96959580Y-128595238D01*
X89719047Y-129054819D02*
X90052380Y-128578628D01*
X90290475Y-129054819D02*
X90290475Y-128054819D01*
X90290475Y-128054819D02*
X89909523Y-128054819D01*
X89909523Y-128054819D02*
X89814285Y-128102438D01*
X89814285Y-128102438D02*
X89766666Y-128150057D01*
X89766666Y-128150057D02*
X89719047Y-128245295D01*
X89719047Y-128245295D02*
X89719047Y-128388152D01*
X89719047Y-128388152D02*
X89766666Y-128483390D01*
X89766666Y-128483390D02*
X89814285Y-128531009D01*
X89814285Y-128531009D02*
X89909523Y-128578628D01*
X89909523Y-128578628D02*
X90290475Y-128578628D01*
X89385713Y-128054819D02*
X88719047Y-128054819D01*
X88719047Y-128054819D02*
X89147618Y-129054819D01*
X88147618Y-128054819D02*
X88052380Y-128054819D01*
X88052380Y-128054819D02*
X87957142Y-128102438D01*
X87957142Y-128102438D02*
X87909523Y-128150057D01*
X87909523Y-128150057D02*
X87861904Y-128245295D01*
X87861904Y-128245295D02*
X87814285Y-128435771D01*
X87814285Y-128435771D02*
X87814285Y-128673866D01*
X87814285Y-128673866D02*
X87861904Y-128864342D01*
X87861904Y-128864342D02*
X87909523Y-128959580D01*
X87909523Y-128959580D02*
X87957142Y-129007200D01*
X87957142Y-129007200D02*
X88052380Y-129054819D01*
X88052380Y-129054819D02*
X88147618Y-129054819D01*
X88147618Y-129054819D02*
X88242856Y-129007200D01*
X88242856Y-129007200D02*
X88290475Y-128959580D01*
X88290475Y-128959580D02*
X88338094Y-128864342D01*
X88338094Y-128864342D02*
X88385713Y-128673866D01*
X88385713Y-128673866D02*
X88385713Y-128435771D01*
X88385713Y-128435771D02*
X88338094Y-128245295D01*
X88338094Y-128245295D02*
X88290475Y-128150057D01*
X88290475Y-128150057D02*
X88242856Y-128102438D01*
X88242856Y-128102438D02*
X88147618Y-128054819D01*
X87480951Y-128054819D02*
X86814285Y-128054819D01*
X86814285Y-128054819D02*
X87242856Y-129054819D01*
X61919047Y-137654819D02*
X62252380Y-137178628D01*
X62490475Y-137654819D02*
X62490475Y-136654819D01*
X62490475Y-136654819D02*
X62109523Y-136654819D01*
X62109523Y-136654819D02*
X62014285Y-136702438D01*
X62014285Y-136702438D02*
X61966666Y-136750057D01*
X61966666Y-136750057D02*
X61919047Y-136845295D01*
X61919047Y-136845295D02*
X61919047Y-136988152D01*
X61919047Y-136988152D02*
X61966666Y-137083390D01*
X61966666Y-137083390D02*
X62014285Y-137131009D01*
X62014285Y-137131009D02*
X62109523Y-137178628D01*
X62109523Y-137178628D02*
X62490475Y-137178628D01*
X61585713Y-136654819D02*
X60919047Y-136654819D01*
X60919047Y-136654819D02*
X61347618Y-137654819D01*
X60014285Y-137654819D02*
X60585713Y-137654819D01*
X60299999Y-137654819D02*
X60299999Y-136654819D01*
X60299999Y-136654819D02*
X60395237Y-136797676D01*
X60395237Y-136797676D02*
X60490475Y-136892914D01*
X60490475Y-136892914D02*
X60585713Y-136940533D01*
X59157142Y-136988152D02*
X59157142Y-137654819D01*
X59395237Y-136607200D02*
X59633332Y-137321485D01*
X59633332Y-137321485D02*
X59014285Y-137321485D01*
X92654819Y-135473700D02*
X92178628Y-135140367D01*
X92654819Y-134902272D02*
X91654819Y-134902272D01*
X91654819Y-134902272D02*
X91654819Y-135283224D01*
X91654819Y-135283224D02*
X91702438Y-135378462D01*
X91702438Y-135378462D02*
X91750057Y-135426081D01*
X91750057Y-135426081D02*
X91845295Y-135473700D01*
X91845295Y-135473700D02*
X91988152Y-135473700D01*
X91988152Y-135473700D02*
X92083390Y-135426081D01*
X92083390Y-135426081D02*
X92131009Y-135378462D01*
X92131009Y-135378462D02*
X92178628Y-135283224D01*
X92178628Y-135283224D02*
X92178628Y-134902272D01*
X92654819Y-136426081D02*
X92654819Y-135854653D01*
X92654819Y-136140367D02*
X91654819Y-136140367D01*
X91654819Y-136140367D02*
X91797676Y-136045129D01*
X91797676Y-136045129D02*
X91892914Y-135949891D01*
X91892914Y-135949891D02*
X91940533Y-135854653D01*
X91654819Y-137045129D02*
X91654819Y-137140367D01*
X91654819Y-137140367D02*
X91702438Y-137235605D01*
X91702438Y-137235605D02*
X91750057Y-137283224D01*
X91750057Y-137283224D02*
X91845295Y-137330843D01*
X91845295Y-137330843D02*
X92035771Y-137378462D01*
X92035771Y-137378462D02*
X92273866Y-137378462D01*
X92273866Y-137378462D02*
X92464342Y-137330843D01*
X92464342Y-137330843D02*
X92559580Y-137283224D01*
X92559580Y-137283224D02*
X92607200Y-137235605D01*
X92607200Y-137235605D02*
X92654819Y-137140367D01*
X92654819Y-137140367D02*
X92654819Y-137045129D01*
X92654819Y-137045129D02*
X92607200Y-136949891D01*
X92607200Y-136949891D02*
X92559580Y-136902272D01*
X92559580Y-136902272D02*
X92464342Y-136854653D01*
X92464342Y-136854653D02*
X92273866Y-136807034D01*
X92273866Y-136807034D02*
X92035771Y-136807034D01*
X92035771Y-136807034D02*
X91845295Y-136854653D01*
X91845295Y-136854653D02*
X91750057Y-136902272D01*
X91750057Y-136902272D02*
X91702438Y-136949891D01*
X91702438Y-136949891D02*
X91654819Y-137045129D01*
X91654819Y-137997510D02*
X91654819Y-138092748D01*
X91654819Y-138092748D02*
X91702438Y-138187986D01*
X91702438Y-138187986D02*
X91750057Y-138235605D01*
X91750057Y-138235605D02*
X91845295Y-138283224D01*
X91845295Y-138283224D02*
X92035771Y-138330843D01*
X92035771Y-138330843D02*
X92273866Y-138330843D01*
X92273866Y-138330843D02*
X92464342Y-138283224D01*
X92464342Y-138283224D02*
X92559580Y-138235605D01*
X92559580Y-138235605D02*
X92607200Y-138187986D01*
X92607200Y-138187986D02*
X92654819Y-138092748D01*
X92654819Y-138092748D02*
X92654819Y-137997510D01*
X92654819Y-137997510D02*
X92607200Y-137902272D01*
X92607200Y-137902272D02*
X92559580Y-137854653D01*
X92559580Y-137854653D02*
X92464342Y-137807034D01*
X92464342Y-137807034D02*
X92273866Y-137759415D01*
X92273866Y-137759415D02*
X92035771Y-137759415D01*
X92035771Y-137759415D02*
X91845295Y-137807034D01*
X91845295Y-137807034D02*
X91750057Y-137854653D01*
X91750057Y-137854653D02*
X91702438Y-137902272D01*
X91702438Y-137902272D02*
X91654819Y-137997510D01*
X91988152Y-139187986D02*
X92654819Y-139187986D01*
X91607200Y-138949891D02*
X92321485Y-138711796D01*
X92321485Y-138711796D02*
X92321485Y-139330843D01*
X75319047Y-133254819D02*
X75652380Y-132778628D01*
X75890475Y-133254819D02*
X75890475Y-132254819D01*
X75890475Y-132254819D02*
X75509523Y-132254819D01*
X75509523Y-132254819D02*
X75414285Y-132302438D01*
X75414285Y-132302438D02*
X75366666Y-132350057D01*
X75366666Y-132350057D02*
X75319047Y-132445295D01*
X75319047Y-132445295D02*
X75319047Y-132588152D01*
X75319047Y-132588152D02*
X75366666Y-132683390D01*
X75366666Y-132683390D02*
X75414285Y-132731009D01*
X75414285Y-132731009D02*
X75509523Y-132778628D01*
X75509523Y-132778628D02*
X75890475Y-132778628D01*
X74985713Y-132254819D02*
X74319047Y-132254819D01*
X74319047Y-132254819D02*
X74747618Y-133254819D01*
X73747618Y-132254819D02*
X73652380Y-132254819D01*
X73652380Y-132254819D02*
X73557142Y-132302438D01*
X73557142Y-132302438D02*
X73509523Y-132350057D01*
X73509523Y-132350057D02*
X73461904Y-132445295D01*
X73461904Y-132445295D02*
X73414285Y-132635771D01*
X73414285Y-132635771D02*
X73414285Y-132873866D01*
X73414285Y-132873866D02*
X73461904Y-133064342D01*
X73461904Y-133064342D02*
X73509523Y-133159580D01*
X73509523Y-133159580D02*
X73557142Y-133207200D01*
X73557142Y-133207200D02*
X73652380Y-133254819D01*
X73652380Y-133254819D02*
X73747618Y-133254819D01*
X73747618Y-133254819D02*
X73842856Y-133207200D01*
X73842856Y-133207200D02*
X73890475Y-133159580D01*
X73890475Y-133159580D02*
X73938094Y-133064342D01*
X73938094Y-133064342D02*
X73985713Y-132873866D01*
X73985713Y-132873866D02*
X73985713Y-132635771D01*
X73985713Y-132635771D02*
X73938094Y-132445295D01*
X73938094Y-132445295D02*
X73890475Y-132350057D01*
X73890475Y-132350057D02*
X73842856Y-132302438D01*
X73842856Y-132302438D02*
X73747618Y-132254819D01*
X73080951Y-132254819D02*
X72461904Y-132254819D01*
X72461904Y-132254819D02*
X72795237Y-132635771D01*
X72795237Y-132635771D02*
X72652380Y-132635771D01*
X72652380Y-132635771D02*
X72557142Y-132683390D01*
X72557142Y-132683390D02*
X72509523Y-132731009D01*
X72509523Y-132731009D02*
X72461904Y-132826247D01*
X72461904Y-132826247D02*
X72461904Y-133064342D01*
X72461904Y-133064342D02*
X72509523Y-133159580D01*
X72509523Y-133159580D02*
X72557142Y-133207200D01*
X72557142Y-133207200D02*
X72652380Y-133254819D01*
X72652380Y-133254819D02*
X72938094Y-133254819D01*
X72938094Y-133254819D02*
X73033332Y-133207200D01*
X73033332Y-133207200D02*
X73080951Y-133159580D01*
X117359580Y-130804761D02*
X117407200Y-130757142D01*
X117407200Y-130757142D02*
X117454819Y-130614285D01*
X117454819Y-130614285D02*
X117454819Y-130519047D01*
X117454819Y-130519047D02*
X117407200Y-130376190D01*
X117407200Y-130376190D02*
X117311961Y-130280952D01*
X117311961Y-130280952D02*
X117216723Y-130233333D01*
X117216723Y-130233333D02*
X117026247Y-130185714D01*
X117026247Y-130185714D02*
X116883390Y-130185714D01*
X116883390Y-130185714D02*
X116692914Y-130233333D01*
X116692914Y-130233333D02*
X116597676Y-130280952D01*
X116597676Y-130280952D02*
X116502438Y-130376190D01*
X116502438Y-130376190D02*
X116454819Y-130519047D01*
X116454819Y-130519047D02*
X116454819Y-130614285D01*
X116454819Y-130614285D02*
X116502438Y-130757142D01*
X116502438Y-130757142D02*
X116550057Y-130804761D01*
X117454819Y-131757142D02*
X117454819Y-131185714D01*
X117454819Y-131471428D02*
X116454819Y-131471428D01*
X116454819Y-131471428D02*
X116597676Y-131376190D01*
X116597676Y-131376190D02*
X116692914Y-131280952D01*
X116692914Y-131280952D02*
X116740533Y-131185714D01*
X116454819Y-132376190D02*
X116454819Y-132471428D01*
X116454819Y-132471428D02*
X116502438Y-132566666D01*
X116502438Y-132566666D02*
X116550057Y-132614285D01*
X116550057Y-132614285D02*
X116645295Y-132661904D01*
X116645295Y-132661904D02*
X116835771Y-132709523D01*
X116835771Y-132709523D02*
X117073866Y-132709523D01*
X117073866Y-132709523D02*
X117264342Y-132661904D01*
X117264342Y-132661904D02*
X117359580Y-132614285D01*
X117359580Y-132614285D02*
X117407200Y-132566666D01*
X117407200Y-132566666D02*
X117454819Y-132471428D01*
X117454819Y-132471428D02*
X117454819Y-132376190D01*
X117454819Y-132376190D02*
X117407200Y-132280952D01*
X117407200Y-132280952D02*
X117359580Y-132233333D01*
X117359580Y-132233333D02*
X117264342Y-132185714D01*
X117264342Y-132185714D02*
X117073866Y-132138095D01*
X117073866Y-132138095D02*
X116835771Y-132138095D01*
X116835771Y-132138095D02*
X116645295Y-132185714D01*
X116645295Y-132185714D02*
X116550057Y-132233333D01*
X116550057Y-132233333D02*
X116502438Y-132280952D01*
X116502438Y-132280952D02*
X116454819Y-132376190D01*
X116454819Y-133328571D02*
X116454819Y-133423809D01*
X116454819Y-133423809D02*
X116502438Y-133519047D01*
X116502438Y-133519047D02*
X116550057Y-133566666D01*
X116550057Y-133566666D02*
X116645295Y-133614285D01*
X116645295Y-133614285D02*
X116835771Y-133661904D01*
X116835771Y-133661904D02*
X117073866Y-133661904D01*
X117073866Y-133661904D02*
X117264342Y-133614285D01*
X117264342Y-133614285D02*
X117359580Y-133566666D01*
X117359580Y-133566666D02*
X117407200Y-133519047D01*
X117407200Y-133519047D02*
X117454819Y-133423809D01*
X117454819Y-133423809D02*
X117454819Y-133328571D01*
X117454819Y-133328571D02*
X117407200Y-133233333D01*
X117407200Y-133233333D02*
X117359580Y-133185714D01*
X117359580Y-133185714D02*
X117264342Y-133138095D01*
X117264342Y-133138095D02*
X117073866Y-133090476D01*
X117073866Y-133090476D02*
X116835771Y-133090476D01*
X116835771Y-133090476D02*
X116645295Y-133138095D01*
X116645295Y-133138095D02*
X116550057Y-133185714D01*
X116550057Y-133185714D02*
X116502438Y-133233333D01*
X116502438Y-133233333D02*
X116454819Y-133328571D01*
X116454819Y-134519047D02*
X116454819Y-134328571D01*
X116454819Y-134328571D02*
X116502438Y-134233333D01*
X116502438Y-134233333D02*
X116550057Y-134185714D01*
X116550057Y-134185714D02*
X116692914Y-134090476D01*
X116692914Y-134090476D02*
X116883390Y-134042857D01*
X116883390Y-134042857D02*
X117264342Y-134042857D01*
X117264342Y-134042857D02*
X117359580Y-134090476D01*
X117359580Y-134090476D02*
X117407200Y-134138095D01*
X117407200Y-134138095D02*
X117454819Y-134233333D01*
X117454819Y-134233333D02*
X117454819Y-134423809D01*
X117454819Y-134423809D02*
X117407200Y-134519047D01*
X117407200Y-134519047D02*
X117359580Y-134566666D01*
X117359580Y-134566666D02*
X117264342Y-134614285D01*
X117264342Y-134614285D02*
X117026247Y-134614285D01*
X117026247Y-134614285D02*
X116931009Y-134566666D01*
X116931009Y-134566666D02*
X116883390Y-134519047D01*
X116883390Y-134519047D02*
X116835771Y-134423809D01*
X116835771Y-134423809D02*
X116835771Y-134233333D01*
X116835771Y-134233333D02*
X116883390Y-134138095D01*
X116883390Y-134138095D02*
X116931009Y-134090476D01*
X116931009Y-134090476D02*
X117026247Y-134042857D01*
X103678114Y-135473700D02*
X103201923Y-135140367D01*
X103678114Y-134902272D02*
X102678114Y-134902272D01*
X102678114Y-134902272D02*
X102678114Y-135283224D01*
X102678114Y-135283224D02*
X102725733Y-135378462D01*
X102725733Y-135378462D02*
X102773352Y-135426081D01*
X102773352Y-135426081D02*
X102868590Y-135473700D01*
X102868590Y-135473700D02*
X103011447Y-135473700D01*
X103011447Y-135473700D02*
X103106685Y-135426081D01*
X103106685Y-135426081D02*
X103154304Y-135378462D01*
X103154304Y-135378462D02*
X103201923Y-135283224D01*
X103201923Y-135283224D02*
X103201923Y-134902272D01*
X103678114Y-136426081D02*
X103678114Y-135854653D01*
X103678114Y-136140367D02*
X102678114Y-136140367D01*
X102678114Y-136140367D02*
X102820971Y-136045129D01*
X102820971Y-136045129D02*
X102916209Y-135949891D01*
X102916209Y-135949891D02*
X102963828Y-135854653D01*
X102678114Y-137045129D02*
X102678114Y-137140367D01*
X102678114Y-137140367D02*
X102725733Y-137235605D01*
X102725733Y-137235605D02*
X102773352Y-137283224D01*
X102773352Y-137283224D02*
X102868590Y-137330843D01*
X102868590Y-137330843D02*
X103059066Y-137378462D01*
X103059066Y-137378462D02*
X103297161Y-137378462D01*
X103297161Y-137378462D02*
X103487637Y-137330843D01*
X103487637Y-137330843D02*
X103582875Y-137283224D01*
X103582875Y-137283224D02*
X103630495Y-137235605D01*
X103630495Y-137235605D02*
X103678114Y-137140367D01*
X103678114Y-137140367D02*
X103678114Y-137045129D01*
X103678114Y-137045129D02*
X103630495Y-136949891D01*
X103630495Y-136949891D02*
X103582875Y-136902272D01*
X103582875Y-136902272D02*
X103487637Y-136854653D01*
X103487637Y-136854653D02*
X103297161Y-136807034D01*
X103297161Y-136807034D02*
X103059066Y-136807034D01*
X103059066Y-136807034D02*
X102868590Y-136854653D01*
X102868590Y-136854653D02*
X102773352Y-136902272D01*
X102773352Y-136902272D02*
X102725733Y-136949891D01*
X102725733Y-136949891D02*
X102678114Y-137045129D01*
X102678114Y-137997510D02*
X102678114Y-138092748D01*
X102678114Y-138092748D02*
X102725733Y-138187986D01*
X102725733Y-138187986D02*
X102773352Y-138235605D01*
X102773352Y-138235605D02*
X102868590Y-138283224D01*
X102868590Y-138283224D02*
X103059066Y-138330843D01*
X103059066Y-138330843D02*
X103297161Y-138330843D01*
X103297161Y-138330843D02*
X103487637Y-138283224D01*
X103487637Y-138283224D02*
X103582875Y-138235605D01*
X103582875Y-138235605D02*
X103630495Y-138187986D01*
X103630495Y-138187986D02*
X103678114Y-138092748D01*
X103678114Y-138092748D02*
X103678114Y-137997510D01*
X103678114Y-137997510D02*
X103630495Y-137902272D01*
X103630495Y-137902272D02*
X103582875Y-137854653D01*
X103582875Y-137854653D02*
X103487637Y-137807034D01*
X103487637Y-137807034D02*
X103297161Y-137759415D01*
X103297161Y-137759415D02*
X103059066Y-137759415D01*
X103059066Y-137759415D02*
X102868590Y-137807034D01*
X102868590Y-137807034D02*
X102773352Y-137854653D01*
X102773352Y-137854653D02*
X102725733Y-137902272D01*
X102725733Y-137902272D02*
X102678114Y-137997510D01*
X102678114Y-139187986D02*
X102678114Y-138997510D01*
X102678114Y-138997510D02*
X102725733Y-138902272D01*
X102725733Y-138902272D02*
X102773352Y-138854653D01*
X102773352Y-138854653D02*
X102916209Y-138759415D01*
X102916209Y-138759415D02*
X103106685Y-138711796D01*
X103106685Y-138711796D02*
X103487637Y-138711796D01*
X103487637Y-138711796D02*
X103582875Y-138759415D01*
X103582875Y-138759415D02*
X103630495Y-138807034D01*
X103630495Y-138807034D02*
X103678114Y-138902272D01*
X103678114Y-138902272D02*
X103678114Y-139092748D01*
X103678114Y-139092748D02*
X103630495Y-139187986D01*
X103630495Y-139187986D02*
X103582875Y-139235605D01*
X103582875Y-139235605D02*
X103487637Y-139283224D01*
X103487637Y-139283224D02*
X103249542Y-139283224D01*
X103249542Y-139283224D02*
X103154304Y-139235605D01*
X103154304Y-139235605D02*
X103106685Y-139187986D01*
X103106685Y-139187986D02*
X103059066Y-139092748D01*
X103059066Y-139092748D02*
X103059066Y-138902272D01*
X103059066Y-138902272D02*
X103106685Y-138807034D01*
X103106685Y-138807034D02*
X103154304Y-138759415D01*
X103154304Y-138759415D02*
X103249542Y-138711796D01*
X100654819Y-149204761D02*
X100178628Y-148871428D01*
X100654819Y-148633333D02*
X99654819Y-148633333D01*
X99654819Y-148633333D02*
X99654819Y-149014285D01*
X99654819Y-149014285D02*
X99702438Y-149109523D01*
X99702438Y-149109523D02*
X99750057Y-149157142D01*
X99750057Y-149157142D02*
X99845295Y-149204761D01*
X99845295Y-149204761D02*
X99988152Y-149204761D01*
X99988152Y-149204761D02*
X100083390Y-149157142D01*
X100083390Y-149157142D02*
X100131009Y-149109523D01*
X100131009Y-149109523D02*
X100178628Y-149014285D01*
X100178628Y-149014285D02*
X100178628Y-148633333D01*
X100654819Y-150157142D02*
X100654819Y-149585714D01*
X100654819Y-149871428D02*
X99654819Y-149871428D01*
X99654819Y-149871428D02*
X99797676Y-149776190D01*
X99797676Y-149776190D02*
X99892914Y-149680952D01*
X99892914Y-149680952D02*
X99940533Y-149585714D01*
X99654819Y-150776190D02*
X99654819Y-150871428D01*
X99654819Y-150871428D02*
X99702438Y-150966666D01*
X99702438Y-150966666D02*
X99750057Y-151014285D01*
X99750057Y-151014285D02*
X99845295Y-151061904D01*
X99845295Y-151061904D02*
X100035771Y-151109523D01*
X100035771Y-151109523D02*
X100273866Y-151109523D01*
X100273866Y-151109523D02*
X100464342Y-151061904D01*
X100464342Y-151061904D02*
X100559580Y-151014285D01*
X100559580Y-151014285D02*
X100607200Y-150966666D01*
X100607200Y-150966666D02*
X100654819Y-150871428D01*
X100654819Y-150871428D02*
X100654819Y-150776190D01*
X100654819Y-150776190D02*
X100607200Y-150680952D01*
X100607200Y-150680952D02*
X100559580Y-150633333D01*
X100559580Y-150633333D02*
X100464342Y-150585714D01*
X100464342Y-150585714D02*
X100273866Y-150538095D01*
X100273866Y-150538095D02*
X100035771Y-150538095D01*
X100035771Y-150538095D02*
X99845295Y-150585714D01*
X99845295Y-150585714D02*
X99750057Y-150633333D01*
X99750057Y-150633333D02*
X99702438Y-150680952D01*
X99702438Y-150680952D02*
X99654819Y-150776190D01*
X100654819Y-152061904D02*
X100654819Y-151490476D01*
X100654819Y-151776190D02*
X99654819Y-151776190D01*
X99654819Y-151776190D02*
X99797676Y-151680952D01*
X99797676Y-151680952D02*
X99892914Y-151585714D01*
X99892914Y-151585714D02*
X99940533Y-151490476D01*
X99654819Y-152680952D02*
X99654819Y-152776190D01*
X99654819Y-152776190D02*
X99702438Y-152871428D01*
X99702438Y-152871428D02*
X99750057Y-152919047D01*
X99750057Y-152919047D02*
X99845295Y-152966666D01*
X99845295Y-152966666D02*
X100035771Y-153014285D01*
X100035771Y-153014285D02*
X100273866Y-153014285D01*
X100273866Y-153014285D02*
X100464342Y-152966666D01*
X100464342Y-152966666D02*
X100559580Y-152919047D01*
X100559580Y-152919047D02*
X100607200Y-152871428D01*
X100607200Y-152871428D02*
X100654819Y-152776190D01*
X100654819Y-152776190D02*
X100654819Y-152680952D01*
X100654819Y-152680952D02*
X100607200Y-152585714D01*
X100607200Y-152585714D02*
X100559580Y-152538095D01*
X100559580Y-152538095D02*
X100464342Y-152490476D01*
X100464342Y-152490476D02*
X100273866Y-152442857D01*
X100273866Y-152442857D02*
X100035771Y-152442857D01*
X100035771Y-152442857D02*
X99845295Y-152490476D01*
X99845295Y-152490476D02*
X99750057Y-152538095D01*
X99750057Y-152538095D02*
X99702438Y-152585714D01*
X99702438Y-152585714D02*
X99654819Y-152680952D01*
X68519047Y-113159580D02*
X68566666Y-113207200D01*
X68566666Y-113207200D02*
X68709523Y-113254819D01*
X68709523Y-113254819D02*
X68804761Y-113254819D01*
X68804761Y-113254819D02*
X68947618Y-113207200D01*
X68947618Y-113207200D02*
X69042856Y-113111961D01*
X69042856Y-113111961D02*
X69090475Y-113016723D01*
X69090475Y-113016723D02*
X69138094Y-112826247D01*
X69138094Y-112826247D02*
X69138094Y-112683390D01*
X69138094Y-112683390D02*
X69090475Y-112492914D01*
X69090475Y-112492914D02*
X69042856Y-112397676D01*
X69042856Y-112397676D02*
X68947618Y-112302438D01*
X68947618Y-112302438D02*
X68804761Y-112254819D01*
X68804761Y-112254819D02*
X68709523Y-112254819D01*
X68709523Y-112254819D02*
X68566666Y-112302438D01*
X68566666Y-112302438D02*
X68519047Y-112350057D01*
X68185713Y-112254819D02*
X67566666Y-112254819D01*
X67566666Y-112254819D02*
X67899999Y-112635771D01*
X67899999Y-112635771D02*
X67757142Y-112635771D01*
X67757142Y-112635771D02*
X67661904Y-112683390D01*
X67661904Y-112683390D02*
X67614285Y-112731009D01*
X67614285Y-112731009D02*
X67566666Y-112826247D01*
X67566666Y-112826247D02*
X67566666Y-113064342D01*
X67566666Y-113064342D02*
X67614285Y-113159580D01*
X67614285Y-113159580D02*
X67661904Y-113207200D01*
X67661904Y-113207200D02*
X67757142Y-113254819D01*
X67757142Y-113254819D02*
X68042856Y-113254819D01*
X68042856Y-113254819D02*
X68138094Y-113207200D01*
X68138094Y-113207200D02*
X68185713Y-113159580D01*
X66947618Y-112254819D02*
X66852380Y-112254819D01*
X66852380Y-112254819D02*
X66757142Y-112302438D01*
X66757142Y-112302438D02*
X66709523Y-112350057D01*
X66709523Y-112350057D02*
X66661904Y-112445295D01*
X66661904Y-112445295D02*
X66614285Y-112635771D01*
X66614285Y-112635771D02*
X66614285Y-112873866D01*
X66614285Y-112873866D02*
X66661904Y-113064342D01*
X66661904Y-113064342D02*
X66709523Y-113159580D01*
X66709523Y-113159580D02*
X66757142Y-113207200D01*
X66757142Y-113207200D02*
X66852380Y-113254819D01*
X66852380Y-113254819D02*
X66947618Y-113254819D01*
X66947618Y-113254819D02*
X67042856Y-113207200D01*
X67042856Y-113207200D02*
X67090475Y-113159580D01*
X67090475Y-113159580D02*
X67138094Y-113064342D01*
X67138094Y-113064342D02*
X67185713Y-112873866D01*
X67185713Y-112873866D02*
X67185713Y-112635771D01*
X67185713Y-112635771D02*
X67138094Y-112445295D01*
X67138094Y-112445295D02*
X67090475Y-112350057D01*
X67090475Y-112350057D02*
X67042856Y-112302438D01*
X67042856Y-112302438D02*
X66947618Y-112254819D01*
X66138094Y-113254819D02*
X65947618Y-113254819D01*
X65947618Y-113254819D02*
X65852380Y-113207200D01*
X65852380Y-113207200D02*
X65804761Y-113159580D01*
X65804761Y-113159580D02*
X65709523Y-113016723D01*
X65709523Y-113016723D02*
X65661904Y-112826247D01*
X65661904Y-112826247D02*
X65661904Y-112445295D01*
X65661904Y-112445295D02*
X65709523Y-112350057D01*
X65709523Y-112350057D02*
X65757142Y-112302438D01*
X65757142Y-112302438D02*
X65852380Y-112254819D01*
X65852380Y-112254819D02*
X66042856Y-112254819D01*
X66042856Y-112254819D02*
X66138094Y-112302438D01*
X66138094Y-112302438D02*
X66185713Y-112350057D01*
X66185713Y-112350057D02*
X66233332Y-112445295D01*
X66233332Y-112445295D02*
X66233332Y-112683390D01*
X66233332Y-112683390D02*
X66185713Y-112778628D01*
X66185713Y-112778628D02*
X66138094Y-112826247D01*
X66138094Y-112826247D02*
X66042856Y-112873866D01*
X66042856Y-112873866D02*
X65852380Y-112873866D01*
X65852380Y-112873866D02*
X65757142Y-112826247D01*
X65757142Y-112826247D02*
X65709523Y-112778628D01*
X65709523Y-112778628D02*
X65661904Y-112683390D01*
X103678114Y-130273700D02*
X103201923Y-129940367D01*
X103678114Y-129702272D02*
X102678114Y-129702272D01*
X102678114Y-129702272D02*
X102678114Y-130083224D01*
X102678114Y-130083224D02*
X102725733Y-130178462D01*
X102725733Y-130178462D02*
X102773352Y-130226081D01*
X102773352Y-130226081D02*
X102868590Y-130273700D01*
X102868590Y-130273700D02*
X103011447Y-130273700D01*
X103011447Y-130273700D02*
X103106685Y-130226081D01*
X103106685Y-130226081D02*
X103154304Y-130178462D01*
X103154304Y-130178462D02*
X103201923Y-130083224D01*
X103201923Y-130083224D02*
X103201923Y-129702272D01*
X103678114Y-131226081D02*
X103678114Y-130654653D01*
X103678114Y-130940367D02*
X102678114Y-130940367D01*
X102678114Y-130940367D02*
X102820971Y-130845129D01*
X102820971Y-130845129D02*
X102916209Y-130749891D01*
X102916209Y-130749891D02*
X102963828Y-130654653D01*
X102678114Y-131845129D02*
X102678114Y-131940367D01*
X102678114Y-131940367D02*
X102725733Y-132035605D01*
X102725733Y-132035605D02*
X102773352Y-132083224D01*
X102773352Y-132083224D02*
X102868590Y-132130843D01*
X102868590Y-132130843D02*
X103059066Y-132178462D01*
X103059066Y-132178462D02*
X103297161Y-132178462D01*
X103297161Y-132178462D02*
X103487637Y-132130843D01*
X103487637Y-132130843D02*
X103582875Y-132083224D01*
X103582875Y-132083224D02*
X103630495Y-132035605D01*
X103630495Y-132035605D02*
X103678114Y-131940367D01*
X103678114Y-131940367D02*
X103678114Y-131845129D01*
X103678114Y-131845129D02*
X103630495Y-131749891D01*
X103630495Y-131749891D02*
X103582875Y-131702272D01*
X103582875Y-131702272D02*
X103487637Y-131654653D01*
X103487637Y-131654653D02*
X103297161Y-131607034D01*
X103297161Y-131607034D02*
X103059066Y-131607034D01*
X103059066Y-131607034D02*
X102868590Y-131654653D01*
X102868590Y-131654653D02*
X102773352Y-131702272D01*
X102773352Y-131702272D02*
X102725733Y-131749891D01*
X102725733Y-131749891D02*
X102678114Y-131845129D01*
X102678114Y-132797510D02*
X102678114Y-132892748D01*
X102678114Y-132892748D02*
X102725733Y-132987986D01*
X102725733Y-132987986D02*
X102773352Y-133035605D01*
X102773352Y-133035605D02*
X102868590Y-133083224D01*
X102868590Y-133083224D02*
X103059066Y-133130843D01*
X103059066Y-133130843D02*
X103297161Y-133130843D01*
X103297161Y-133130843D02*
X103487637Y-133083224D01*
X103487637Y-133083224D02*
X103582875Y-133035605D01*
X103582875Y-133035605D02*
X103630495Y-132987986D01*
X103630495Y-132987986D02*
X103678114Y-132892748D01*
X103678114Y-132892748D02*
X103678114Y-132797510D01*
X103678114Y-132797510D02*
X103630495Y-132702272D01*
X103630495Y-132702272D02*
X103582875Y-132654653D01*
X103582875Y-132654653D02*
X103487637Y-132607034D01*
X103487637Y-132607034D02*
X103297161Y-132559415D01*
X103297161Y-132559415D02*
X103059066Y-132559415D01*
X103059066Y-132559415D02*
X102868590Y-132607034D01*
X102868590Y-132607034D02*
X102773352Y-132654653D01*
X102773352Y-132654653D02*
X102725733Y-132702272D01*
X102725733Y-132702272D02*
X102678114Y-132797510D01*
X102678114Y-133464177D02*
X102678114Y-134130843D01*
X102678114Y-134130843D02*
X103678114Y-133702272D01*
X64559580Y-92880952D02*
X64607200Y-92833333D01*
X64607200Y-92833333D02*
X64654819Y-92690476D01*
X64654819Y-92690476D02*
X64654819Y-92595238D01*
X64654819Y-92595238D02*
X64607200Y-92452381D01*
X64607200Y-92452381D02*
X64511961Y-92357143D01*
X64511961Y-92357143D02*
X64416723Y-92309524D01*
X64416723Y-92309524D02*
X64226247Y-92261905D01*
X64226247Y-92261905D02*
X64083390Y-92261905D01*
X64083390Y-92261905D02*
X63892914Y-92309524D01*
X63892914Y-92309524D02*
X63797676Y-92357143D01*
X63797676Y-92357143D02*
X63702438Y-92452381D01*
X63702438Y-92452381D02*
X63654819Y-92595238D01*
X63654819Y-92595238D02*
X63654819Y-92690476D01*
X63654819Y-92690476D02*
X63702438Y-92833333D01*
X63702438Y-92833333D02*
X63750057Y-92880952D01*
X64654819Y-93357143D02*
X64654819Y-93547619D01*
X64654819Y-93547619D02*
X64607200Y-93642857D01*
X64607200Y-93642857D02*
X64559580Y-93690476D01*
X64559580Y-93690476D02*
X64416723Y-93785714D01*
X64416723Y-93785714D02*
X64226247Y-93833333D01*
X64226247Y-93833333D02*
X63845295Y-93833333D01*
X63845295Y-93833333D02*
X63750057Y-93785714D01*
X63750057Y-93785714D02*
X63702438Y-93738095D01*
X63702438Y-93738095D02*
X63654819Y-93642857D01*
X63654819Y-93642857D02*
X63654819Y-93452381D01*
X63654819Y-93452381D02*
X63702438Y-93357143D01*
X63702438Y-93357143D02*
X63750057Y-93309524D01*
X63750057Y-93309524D02*
X63845295Y-93261905D01*
X63845295Y-93261905D02*
X64083390Y-93261905D01*
X64083390Y-93261905D02*
X64178628Y-93309524D01*
X64178628Y-93309524D02*
X64226247Y-93357143D01*
X64226247Y-93357143D02*
X64273866Y-93452381D01*
X64273866Y-93452381D02*
X64273866Y-93642857D01*
X64273866Y-93642857D02*
X64226247Y-93738095D01*
X64226247Y-93738095D02*
X64178628Y-93785714D01*
X64178628Y-93785714D02*
X64083390Y-93833333D01*
X63654819Y-94452381D02*
X63654819Y-94547619D01*
X63654819Y-94547619D02*
X63702438Y-94642857D01*
X63702438Y-94642857D02*
X63750057Y-94690476D01*
X63750057Y-94690476D02*
X63845295Y-94738095D01*
X63845295Y-94738095D02*
X64035771Y-94785714D01*
X64035771Y-94785714D02*
X64273866Y-94785714D01*
X64273866Y-94785714D02*
X64464342Y-94738095D01*
X64464342Y-94738095D02*
X64559580Y-94690476D01*
X64559580Y-94690476D02*
X64607200Y-94642857D01*
X64607200Y-94642857D02*
X64654819Y-94547619D01*
X64654819Y-94547619D02*
X64654819Y-94452381D01*
X64654819Y-94452381D02*
X64607200Y-94357143D01*
X64607200Y-94357143D02*
X64559580Y-94309524D01*
X64559580Y-94309524D02*
X64464342Y-94261905D01*
X64464342Y-94261905D02*
X64273866Y-94214286D01*
X64273866Y-94214286D02*
X64035771Y-94214286D01*
X64035771Y-94214286D02*
X63845295Y-94261905D01*
X63845295Y-94261905D02*
X63750057Y-94309524D01*
X63750057Y-94309524D02*
X63702438Y-94357143D01*
X63702438Y-94357143D02*
X63654819Y-94452381D01*
X63750057Y-95166667D02*
X63702438Y-95214286D01*
X63702438Y-95214286D02*
X63654819Y-95309524D01*
X63654819Y-95309524D02*
X63654819Y-95547619D01*
X63654819Y-95547619D02*
X63702438Y-95642857D01*
X63702438Y-95642857D02*
X63750057Y-95690476D01*
X63750057Y-95690476D02*
X63845295Y-95738095D01*
X63845295Y-95738095D02*
X63940533Y-95738095D01*
X63940533Y-95738095D02*
X64083390Y-95690476D01*
X64083390Y-95690476D02*
X64654819Y-95119048D01*
X64654819Y-95119048D02*
X64654819Y-95738095D01*
X76119047Y-114284819D02*
X76452380Y-113808628D01*
X76690475Y-114284819D02*
X76690475Y-113284819D01*
X76690475Y-113284819D02*
X76309523Y-113284819D01*
X76309523Y-113284819D02*
X76214285Y-113332438D01*
X76214285Y-113332438D02*
X76166666Y-113380057D01*
X76166666Y-113380057D02*
X76119047Y-113475295D01*
X76119047Y-113475295D02*
X76119047Y-113618152D01*
X76119047Y-113618152D02*
X76166666Y-113713390D01*
X76166666Y-113713390D02*
X76214285Y-113761009D01*
X76214285Y-113761009D02*
X76309523Y-113808628D01*
X76309523Y-113808628D02*
X76690475Y-113808628D01*
X75785713Y-113284819D02*
X75166666Y-113284819D01*
X75166666Y-113284819D02*
X75499999Y-113665771D01*
X75499999Y-113665771D02*
X75357142Y-113665771D01*
X75357142Y-113665771D02*
X75261904Y-113713390D01*
X75261904Y-113713390D02*
X75214285Y-113761009D01*
X75214285Y-113761009D02*
X75166666Y-113856247D01*
X75166666Y-113856247D02*
X75166666Y-114094342D01*
X75166666Y-114094342D02*
X75214285Y-114189580D01*
X75214285Y-114189580D02*
X75261904Y-114237200D01*
X75261904Y-114237200D02*
X75357142Y-114284819D01*
X75357142Y-114284819D02*
X75642856Y-114284819D01*
X75642856Y-114284819D02*
X75738094Y-114237200D01*
X75738094Y-114237200D02*
X75785713Y-114189580D01*
X74547618Y-113284819D02*
X74452380Y-113284819D01*
X74452380Y-113284819D02*
X74357142Y-113332438D01*
X74357142Y-113332438D02*
X74309523Y-113380057D01*
X74309523Y-113380057D02*
X74261904Y-113475295D01*
X74261904Y-113475295D02*
X74214285Y-113665771D01*
X74214285Y-113665771D02*
X74214285Y-113903866D01*
X74214285Y-113903866D02*
X74261904Y-114094342D01*
X74261904Y-114094342D02*
X74309523Y-114189580D01*
X74309523Y-114189580D02*
X74357142Y-114237200D01*
X74357142Y-114237200D02*
X74452380Y-114284819D01*
X74452380Y-114284819D02*
X74547618Y-114284819D01*
X74547618Y-114284819D02*
X74642856Y-114237200D01*
X74642856Y-114237200D02*
X74690475Y-114189580D01*
X74690475Y-114189580D02*
X74738094Y-114094342D01*
X74738094Y-114094342D02*
X74785713Y-113903866D01*
X74785713Y-113903866D02*
X74785713Y-113665771D01*
X74785713Y-113665771D02*
X74738094Y-113475295D01*
X74738094Y-113475295D02*
X74690475Y-113380057D01*
X74690475Y-113380057D02*
X74642856Y-113332438D01*
X74642856Y-113332438D02*
X74547618Y-113284819D01*
X73880951Y-113284819D02*
X73261904Y-113284819D01*
X73261904Y-113284819D02*
X73595237Y-113665771D01*
X73595237Y-113665771D02*
X73452380Y-113665771D01*
X73452380Y-113665771D02*
X73357142Y-113713390D01*
X73357142Y-113713390D02*
X73309523Y-113761009D01*
X73309523Y-113761009D02*
X73261904Y-113856247D01*
X73261904Y-113856247D02*
X73261904Y-114094342D01*
X73261904Y-114094342D02*
X73309523Y-114189580D01*
X73309523Y-114189580D02*
X73357142Y-114237200D01*
X73357142Y-114237200D02*
X73452380Y-114284819D01*
X73452380Y-114284819D02*
X73738094Y-114284819D01*
X73738094Y-114284819D02*
X73833332Y-114237200D01*
X73833332Y-114237200D02*
X73880951Y-114189580D01*
X84919047Y-129054819D02*
X85252380Y-128578628D01*
X85490475Y-129054819D02*
X85490475Y-128054819D01*
X85490475Y-128054819D02*
X85109523Y-128054819D01*
X85109523Y-128054819D02*
X85014285Y-128102438D01*
X85014285Y-128102438D02*
X84966666Y-128150057D01*
X84966666Y-128150057D02*
X84919047Y-128245295D01*
X84919047Y-128245295D02*
X84919047Y-128388152D01*
X84919047Y-128388152D02*
X84966666Y-128483390D01*
X84966666Y-128483390D02*
X85014285Y-128531009D01*
X85014285Y-128531009D02*
X85109523Y-128578628D01*
X85109523Y-128578628D02*
X85490475Y-128578628D01*
X84585713Y-128054819D02*
X83919047Y-128054819D01*
X83919047Y-128054819D02*
X84347618Y-129054819D01*
X83347618Y-128054819D02*
X83252380Y-128054819D01*
X83252380Y-128054819D02*
X83157142Y-128102438D01*
X83157142Y-128102438D02*
X83109523Y-128150057D01*
X83109523Y-128150057D02*
X83061904Y-128245295D01*
X83061904Y-128245295D02*
X83014285Y-128435771D01*
X83014285Y-128435771D02*
X83014285Y-128673866D01*
X83014285Y-128673866D02*
X83061904Y-128864342D01*
X83061904Y-128864342D02*
X83109523Y-128959580D01*
X83109523Y-128959580D02*
X83157142Y-129007200D01*
X83157142Y-129007200D02*
X83252380Y-129054819D01*
X83252380Y-129054819D02*
X83347618Y-129054819D01*
X83347618Y-129054819D02*
X83442856Y-129007200D01*
X83442856Y-129007200D02*
X83490475Y-128959580D01*
X83490475Y-128959580D02*
X83538094Y-128864342D01*
X83538094Y-128864342D02*
X83585713Y-128673866D01*
X83585713Y-128673866D02*
X83585713Y-128435771D01*
X83585713Y-128435771D02*
X83538094Y-128245295D01*
X83538094Y-128245295D02*
X83490475Y-128150057D01*
X83490475Y-128150057D02*
X83442856Y-128102438D01*
X83442856Y-128102438D02*
X83347618Y-128054819D01*
X82157142Y-128054819D02*
X82347618Y-128054819D01*
X82347618Y-128054819D02*
X82442856Y-128102438D01*
X82442856Y-128102438D02*
X82490475Y-128150057D01*
X82490475Y-128150057D02*
X82585713Y-128292914D01*
X82585713Y-128292914D02*
X82633332Y-128483390D01*
X82633332Y-128483390D02*
X82633332Y-128864342D01*
X82633332Y-128864342D02*
X82585713Y-128959580D01*
X82585713Y-128959580D02*
X82538094Y-129007200D01*
X82538094Y-129007200D02*
X82442856Y-129054819D01*
X82442856Y-129054819D02*
X82252380Y-129054819D01*
X82252380Y-129054819D02*
X82157142Y-129007200D01*
X82157142Y-129007200D02*
X82109523Y-128959580D01*
X82109523Y-128959580D02*
X82061904Y-128864342D01*
X82061904Y-128864342D02*
X82061904Y-128626247D01*
X82061904Y-128626247D02*
X82109523Y-128531009D01*
X82109523Y-128531009D02*
X82157142Y-128483390D01*
X82157142Y-128483390D02*
X82252380Y-128435771D01*
X82252380Y-128435771D02*
X82442856Y-128435771D01*
X82442856Y-128435771D02*
X82538094Y-128483390D01*
X82538094Y-128483390D02*
X82585713Y-128531009D01*
X82585713Y-128531009D02*
X82633332Y-128626247D01*
X94995238Y-150054819D02*
X95328571Y-149578628D01*
X95566666Y-150054819D02*
X95566666Y-149054819D01*
X95566666Y-149054819D02*
X95185714Y-149054819D01*
X95185714Y-149054819D02*
X95090476Y-149102438D01*
X95090476Y-149102438D02*
X95042857Y-149150057D01*
X95042857Y-149150057D02*
X94995238Y-149245295D01*
X94995238Y-149245295D02*
X94995238Y-149388152D01*
X94995238Y-149388152D02*
X95042857Y-149483390D01*
X95042857Y-149483390D02*
X95090476Y-149531009D01*
X95090476Y-149531009D02*
X95185714Y-149578628D01*
X95185714Y-149578628D02*
X95566666Y-149578628D01*
X94042857Y-150054819D02*
X94614285Y-150054819D01*
X94328571Y-150054819D02*
X94328571Y-149054819D01*
X94328571Y-149054819D02*
X94423809Y-149197676D01*
X94423809Y-149197676D02*
X94519047Y-149292914D01*
X94519047Y-149292914D02*
X94614285Y-149340533D01*
X93423809Y-149054819D02*
X93328571Y-149054819D01*
X93328571Y-149054819D02*
X93233333Y-149102438D01*
X93233333Y-149102438D02*
X93185714Y-149150057D01*
X93185714Y-149150057D02*
X93138095Y-149245295D01*
X93138095Y-149245295D02*
X93090476Y-149435771D01*
X93090476Y-149435771D02*
X93090476Y-149673866D01*
X93090476Y-149673866D02*
X93138095Y-149864342D01*
X93138095Y-149864342D02*
X93185714Y-149959580D01*
X93185714Y-149959580D02*
X93233333Y-150007200D01*
X93233333Y-150007200D02*
X93328571Y-150054819D01*
X93328571Y-150054819D02*
X93423809Y-150054819D01*
X93423809Y-150054819D02*
X93519047Y-150007200D01*
X93519047Y-150007200D02*
X93566666Y-149959580D01*
X93566666Y-149959580D02*
X93614285Y-149864342D01*
X93614285Y-149864342D02*
X93661904Y-149673866D01*
X93661904Y-149673866D02*
X93661904Y-149435771D01*
X93661904Y-149435771D02*
X93614285Y-149245295D01*
X93614285Y-149245295D02*
X93566666Y-149150057D01*
X93566666Y-149150057D02*
X93519047Y-149102438D01*
X93519047Y-149102438D02*
X93423809Y-149054819D01*
X92471428Y-149054819D02*
X92376190Y-149054819D01*
X92376190Y-149054819D02*
X92280952Y-149102438D01*
X92280952Y-149102438D02*
X92233333Y-149150057D01*
X92233333Y-149150057D02*
X92185714Y-149245295D01*
X92185714Y-149245295D02*
X92138095Y-149435771D01*
X92138095Y-149435771D02*
X92138095Y-149673866D01*
X92138095Y-149673866D02*
X92185714Y-149864342D01*
X92185714Y-149864342D02*
X92233333Y-149959580D01*
X92233333Y-149959580D02*
X92280952Y-150007200D01*
X92280952Y-150007200D02*
X92376190Y-150054819D01*
X92376190Y-150054819D02*
X92471428Y-150054819D01*
X92471428Y-150054819D02*
X92566666Y-150007200D01*
X92566666Y-150007200D02*
X92614285Y-149959580D01*
X92614285Y-149959580D02*
X92661904Y-149864342D01*
X92661904Y-149864342D02*
X92709523Y-149673866D01*
X92709523Y-149673866D02*
X92709523Y-149435771D01*
X92709523Y-149435771D02*
X92661904Y-149245295D01*
X92661904Y-149245295D02*
X92614285Y-149150057D01*
X92614285Y-149150057D02*
X92566666Y-149102438D01*
X92566666Y-149102438D02*
X92471428Y-149054819D01*
X91661904Y-150054819D02*
X91471428Y-150054819D01*
X91471428Y-150054819D02*
X91376190Y-150007200D01*
X91376190Y-150007200D02*
X91328571Y-149959580D01*
X91328571Y-149959580D02*
X91233333Y-149816723D01*
X91233333Y-149816723D02*
X91185714Y-149626247D01*
X91185714Y-149626247D02*
X91185714Y-149245295D01*
X91185714Y-149245295D02*
X91233333Y-149150057D01*
X91233333Y-149150057D02*
X91280952Y-149102438D01*
X91280952Y-149102438D02*
X91376190Y-149054819D01*
X91376190Y-149054819D02*
X91566666Y-149054819D01*
X91566666Y-149054819D02*
X91661904Y-149102438D01*
X91661904Y-149102438D02*
X91709523Y-149150057D01*
X91709523Y-149150057D02*
X91757142Y-149245295D01*
X91757142Y-149245295D02*
X91757142Y-149483390D01*
X91757142Y-149483390D02*
X91709523Y-149578628D01*
X91709523Y-149578628D02*
X91661904Y-149626247D01*
X91661904Y-149626247D02*
X91566666Y-149673866D01*
X91566666Y-149673866D02*
X91376190Y-149673866D01*
X91376190Y-149673866D02*
X91280952Y-149626247D01*
X91280952Y-149626247D02*
X91233333Y-149578628D01*
X91233333Y-149578628D02*
X91185714Y-149483390D01*
X89319047Y-133454819D02*
X89652380Y-132978628D01*
X89890475Y-133454819D02*
X89890475Y-132454819D01*
X89890475Y-132454819D02*
X89509523Y-132454819D01*
X89509523Y-132454819D02*
X89414285Y-132502438D01*
X89414285Y-132502438D02*
X89366666Y-132550057D01*
X89366666Y-132550057D02*
X89319047Y-132645295D01*
X89319047Y-132645295D02*
X89319047Y-132788152D01*
X89319047Y-132788152D02*
X89366666Y-132883390D01*
X89366666Y-132883390D02*
X89414285Y-132931009D01*
X89414285Y-132931009D02*
X89509523Y-132978628D01*
X89509523Y-132978628D02*
X89890475Y-132978628D01*
X88985713Y-132454819D02*
X88319047Y-132454819D01*
X88319047Y-132454819D02*
X88747618Y-133454819D01*
X87747618Y-132454819D02*
X87652380Y-132454819D01*
X87652380Y-132454819D02*
X87557142Y-132502438D01*
X87557142Y-132502438D02*
X87509523Y-132550057D01*
X87509523Y-132550057D02*
X87461904Y-132645295D01*
X87461904Y-132645295D02*
X87414285Y-132835771D01*
X87414285Y-132835771D02*
X87414285Y-133073866D01*
X87414285Y-133073866D02*
X87461904Y-133264342D01*
X87461904Y-133264342D02*
X87509523Y-133359580D01*
X87509523Y-133359580D02*
X87557142Y-133407200D01*
X87557142Y-133407200D02*
X87652380Y-133454819D01*
X87652380Y-133454819D02*
X87747618Y-133454819D01*
X87747618Y-133454819D02*
X87842856Y-133407200D01*
X87842856Y-133407200D02*
X87890475Y-133359580D01*
X87890475Y-133359580D02*
X87938094Y-133264342D01*
X87938094Y-133264342D02*
X87985713Y-133073866D01*
X87985713Y-133073866D02*
X87985713Y-132835771D01*
X87985713Y-132835771D02*
X87938094Y-132645295D01*
X87938094Y-132645295D02*
X87890475Y-132550057D01*
X87890475Y-132550057D02*
X87842856Y-132502438D01*
X87842856Y-132502438D02*
X87747618Y-132454819D01*
X86557142Y-132788152D02*
X86557142Y-133454819D01*
X86795237Y-132407200D02*
X87033332Y-133121485D01*
X87033332Y-133121485D02*
X86414285Y-133121485D01*
X71469047Y-128224819D02*
X71802380Y-127748628D01*
X72040475Y-128224819D02*
X72040475Y-127224819D01*
X72040475Y-127224819D02*
X71659523Y-127224819D01*
X71659523Y-127224819D02*
X71564285Y-127272438D01*
X71564285Y-127272438D02*
X71516666Y-127320057D01*
X71516666Y-127320057D02*
X71469047Y-127415295D01*
X71469047Y-127415295D02*
X71469047Y-127558152D01*
X71469047Y-127558152D02*
X71516666Y-127653390D01*
X71516666Y-127653390D02*
X71564285Y-127701009D01*
X71564285Y-127701009D02*
X71659523Y-127748628D01*
X71659523Y-127748628D02*
X72040475Y-127748628D01*
X71135713Y-127224819D02*
X70469047Y-127224819D01*
X70469047Y-127224819D02*
X70897618Y-128224819D01*
X69564285Y-128224819D02*
X70135713Y-128224819D01*
X69849999Y-128224819D02*
X69849999Y-127224819D01*
X69849999Y-127224819D02*
X69945237Y-127367676D01*
X69945237Y-127367676D02*
X70040475Y-127462914D01*
X70040475Y-127462914D02*
X70135713Y-127510533D01*
X68945237Y-127224819D02*
X68849999Y-127224819D01*
X68849999Y-127224819D02*
X68754761Y-127272438D01*
X68754761Y-127272438D02*
X68707142Y-127320057D01*
X68707142Y-127320057D02*
X68659523Y-127415295D01*
X68659523Y-127415295D02*
X68611904Y-127605771D01*
X68611904Y-127605771D02*
X68611904Y-127843866D01*
X68611904Y-127843866D02*
X68659523Y-128034342D01*
X68659523Y-128034342D02*
X68707142Y-128129580D01*
X68707142Y-128129580D02*
X68754761Y-128177200D01*
X68754761Y-128177200D02*
X68849999Y-128224819D01*
X68849999Y-128224819D02*
X68945237Y-128224819D01*
X68945237Y-128224819D02*
X69040475Y-128177200D01*
X69040475Y-128177200D02*
X69088094Y-128129580D01*
X69088094Y-128129580D02*
X69135713Y-128034342D01*
X69135713Y-128034342D02*
X69183332Y-127843866D01*
X69183332Y-127843866D02*
X69183332Y-127605771D01*
X69183332Y-127605771D02*
X69135713Y-127415295D01*
X69135713Y-127415295D02*
X69088094Y-127320057D01*
X69088094Y-127320057D02*
X69040475Y-127272438D01*
X69040475Y-127272438D02*
X68945237Y-127224819D01*
X110054819Y-154404761D02*
X109578628Y-154071428D01*
X110054819Y-153833333D02*
X109054819Y-153833333D01*
X109054819Y-153833333D02*
X109054819Y-154214285D01*
X109054819Y-154214285D02*
X109102438Y-154309523D01*
X109102438Y-154309523D02*
X109150057Y-154357142D01*
X109150057Y-154357142D02*
X109245295Y-154404761D01*
X109245295Y-154404761D02*
X109388152Y-154404761D01*
X109388152Y-154404761D02*
X109483390Y-154357142D01*
X109483390Y-154357142D02*
X109531009Y-154309523D01*
X109531009Y-154309523D02*
X109578628Y-154214285D01*
X109578628Y-154214285D02*
X109578628Y-153833333D01*
X110054819Y-155357142D02*
X110054819Y-154785714D01*
X110054819Y-155071428D02*
X109054819Y-155071428D01*
X109054819Y-155071428D02*
X109197676Y-154976190D01*
X109197676Y-154976190D02*
X109292914Y-154880952D01*
X109292914Y-154880952D02*
X109340533Y-154785714D01*
X109054819Y-155976190D02*
X109054819Y-156071428D01*
X109054819Y-156071428D02*
X109102438Y-156166666D01*
X109102438Y-156166666D02*
X109150057Y-156214285D01*
X109150057Y-156214285D02*
X109245295Y-156261904D01*
X109245295Y-156261904D02*
X109435771Y-156309523D01*
X109435771Y-156309523D02*
X109673866Y-156309523D01*
X109673866Y-156309523D02*
X109864342Y-156261904D01*
X109864342Y-156261904D02*
X109959580Y-156214285D01*
X109959580Y-156214285D02*
X110007200Y-156166666D01*
X110007200Y-156166666D02*
X110054819Y-156071428D01*
X110054819Y-156071428D02*
X110054819Y-155976190D01*
X110054819Y-155976190D02*
X110007200Y-155880952D01*
X110007200Y-155880952D02*
X109959580Y-155833333D01*
X109959580Y-155833333D02*
X109864342Y-155785714D01*
X109864342Y-155785714D02*
X109673866Y-155738095D01*
X109673866Y-155738095D02*
X109435771Y-155738095D01*
X109435771Y-155738095D02*
X109245295Y-155785714D01*
X109245295Y-155785714D02*
X109150057Y-155833333D01*
X109150057Y-155833333D02*
X109102438Y-155880952D01*
X109102438Y-155880952D02*
X109054819Y-155976190D01*
X110054819Y-157261904D02*
X110054819Y-156690476D01*
X110054819Y-156976190D02*
X109054819Y-156976190D01*
X109054819Y-156976190D02*
X109197676Y-156880952D01*
X109197676Y-156880952D02*
X109292914Y-156785714D01*
X109292914Y-156785714D02*
X109340533Y-156690476D01*
X109150057Y-157642857D02*
X109102438Y-157690476D01*
X109102438Y-157690476D02*
X109054819Y-157785714D01*
X109054819Y-157785714D02*
X109054819Y-158023809D01*
X109054819Y-158023809D02*
X109102438Y-158119047D01*
X109102438Y-158119047D02*
X109150057Y-158166666D01*
X109150057Y-158166666D02*
X109245295Y-158214285D01*
X109245295Y-158214285D02*
X109340533Y-158214285D01*
X109340533Y-158214285D02*
X109483390Y-158166666D01*
X109483390Y-158166666D02*
X110054819Y-157595238D01*
X110054819Y-157595238D02*
X110054819Y-158214285D01*
X93218114Y-144073700D02*
X92741923Y-143740367D01*
X93218114Y-143502272D02*
X92218114Y-143502272D01*
X92218114Y-143502272D02*
X92218114Y-143883224D01*
X92218114Y-143883224D02*
X92265733Y-143978462D01*
X92265733Y-143978462D02*
X92313352Y-144026081D01*
X92313352Y-144026081D02*
X92408590Y-144073700D01*
X92408590Y-144073700D02*
X92551447Y-144073700D01*
X92551447Y-144073700D02*
X92646685Y-144026081D01*
X92646685Y-144026081D02*
X92694304Y-143978462D01*
X92694304Y-143978462D02*
X92741923Y-143883224D01*
X92741923Y-143883224D02*
X92741923Y-143502272D01*
X93218114Y-145026081D02*
X93218114Y-144454653D01*
X93218114Y-144740367D02*
X92218114Y-144740367D01*
X92218114Y-144740367D02*
X92360971Y-144645129D01*
X92360971Y-144645129D02*
X92456209Y-144549891D01*
X92456209Y-144549891D02*
X92503828Y-144454653D01*
X92218114Y-145645129D02*
X92218114Y-145740367D01*
X92218114Y-145740367D02*
X92265733Y-145835605D01*
X92265733Y-145835605D02*
X92313352Y-145883224D01*
X92313352Y-145883224D02*
X92408590Y-145930843D01*
X92408590Y-145930843D02*
X92599066Y-145978462D01*
X92599066Y-145978462D02*
X92837161Y-145978462D01*
X92837161Y-145978462D02*
X93027637Y-145930843D01*
X93027637Y-145930843D02*
X93122875Y-145883224D01*
X93122875Y-145883224D02*
X93170495Y-145835605D01*
X93170495Y-145835605D02*
X93218114Y-145740367D01*
X93218114Y-145740367D02*
X93218114Y-145645129D01*
X93218114Y-145645129D02*
X93170495Y-145549891D01*
X93170495Y-145549891D02*
X93122875Y-145502272D01*
X93122875Y-145502272D02*
X93027637Y-145454653D01*
X93027637Y-145454653D02*
X92837161Y-145407034D01*
X92837161Y-145407034D02*
X92599066Y-145407034D01*
X92599066Y-145407034D02*
X92408590Y-145454653D01*
X92408590Y-145454653D02*
X92313352Y-145502272D01*
X92313352Y-145502272D02*
X92265733Y-145549891D01*
X92265733Y-145549891D02*
X92218114Y-145645129D01*
X92218114Y-146597510D02*
X92218114Y-146692748D01*
X92218114Y-146692748D02*
X92265733Y-146787986D01*
X92265733Y-146787986D02*
X92313352Y-146835605D01*
X92313352Y-146835605D02*
X92408590Y-146883224D01*
X92408590Y-146883224D02*
X92599066Y-146930843D01*
X92599066Y-146930843D02*
X92837161Y-146930843D01*
X92837161Y-146930843D02*
X93027637Y-146883224D01*
X93027637Y-146883224D02*
X93122875Y-146835605D01*
X93122875Y-146835605D02*
X93170495Y-146787986D01*
X93170495Y-146787986D02*
X93218114Y-146692748D01*
X93218114Y-146692748D02*
X93218114Y-146597510D01*
X93218114Y-146597510D02*
X93170495Y-146502272D01*
X93170495Y-146502272D02*
X93122875Y-146454653D01*
X93122875Y-146454653D02*
X93027637Y-146407034D01*
X93027637Y-146407034D02*
X92837161Y-146359415D01*
X92837161Y-146359415D02*
X92599066Y-146359415D01*
X92599066Y-146359415D02*
X92408590Y-146407034D01*
X92408590Y-146407034D02*
X92313352Y-146454653D01*
X92313352Y-146454653D02*
X92265733Y-146502272D01*
X92265733Y-146502272D02*
X92218114Y-146597510D01*
X92646685Y-147502272D02*
X92599066Y-147407034D01*
X92599066Y-147407034D02*
X92551447Y-147359415D01*
X92551447Y-147359415D02*
X92456209Y-147311796D01*
X92456209Y-147311796D02*
X92408590Y-147311796D01*
X92408590Y-147311796D02*
X92313352Y-147359415D01*
X92313352Y-147359415D02*
X92265733Y-147407034D01*
X92265733Y-147407034D02*
X92218114Y-147502272D01*
X92218114Y-147502272D02*
X92218114Y-147692748D01*
X92218114Y-147692748D02*
X92265733Y-147787986D01*
X92265733Y-147787986D02*
X92313352Y-147835605D01*
X92313352Y-147835605D02*
X92408590Y-147883224D01*
X92408590Y-147883224D02*
X92456209Y-147883224D01*
X92456209Y-147883224D02*
X92551447Y-147835605D01*
X92551447Y-147835605D02*
X92599066Y-147787986D01*
X92599066Y-147787986D02*
X92646685Y-147692748D01*
X92646685Y-147692748D02*
X92646685Y-147502272D01*
X92646685Y-147502272D02*
X92694304Y-147407034D01*
X92694304Y-147407034D02*
X92741923Y-147359415D01*
X92741923Y-147359415D02*
X92837161Y-147311796D01*
X92837161Y-147311796D02*
X93027637Y-147311796D01*
X93027637Y-147311796D02*
X93122875Y-147359415D01*
X93122875Y-147359415D02*
X93170495Y-147407034D01*
X93170495Y-147407034D02*
X93218114Y-147502272D01*
X93218114Y-147502272D02*
X93218114Y-147692748D01*
X93218114Y-147692748D02*
X93170495Y-147787986D01*
X93170495Y-147787986D02*
X93122875Y-147835605D01*
X93122875Y-147835605D02*
X93027637Y-147883224D01*
X93027637Y-147883224D02*
X92837161Y-147883224D01*
X92837161Y-147883224D02*
X92741923Y-147835605D01*
X92741923Y-147835605D02*
X92694304Y-147787986D01*
X92694304Y-147787986D02*
X92646685Y-147692748D01*
X99454819Y-130604761D02*
X98978628Y-130271428D01*
X99454819Y-130033333D02*
X98454819Y-130033333D01*
X98454819Y-130033333D02*
X98454819Y-130414285D01*
X98454819Y-130414285D02*
X98502438Y-130509523D01*
X98502438Y-130509523D02*
X98550057Y-130557142D01*
X98550057Y-130557142D02*
X98645295Y-130604761D01*
X98645295Y-130604761D02*
X98788152Y-130604761D01*
X98788152Y-130604761D02*
X98883390Y-130557142D01*
X98883390Y-130557142D02*
X98931009Y-130509523D01*
X98931009Y-130509523D02*
X98978628Y-130414285D01*
X98978628Y-130414285D02*
X98978628Y-130033333D01*
X99454819Y-131557142D02*
X99454819Y-130985714D01*
X99454819Y-131271428D02*
X98454819Y-131271428D01*
X98454819Y-131271428D02*
X98597676Y-131176190D01*
X98597676Y-131176190D02*
X98692914Y-131080952D01*
X98692914Y-131080952D02*
X98740533Y-130985714D01*
X98454819Y-132176190D02*
X98454819Y-132271428D01*
X98454819Y-132271428D02*
X98502438Y-132366666D01*
X98502438Y-132366666D02*
X98550057Y-132414285D01*
X98550057Y-132414285D02*
X98645295Y-132461904D01*
X98645295Y-132461904D02*
X98835771Y-132509523D01*
X98835771Y-132509523D02*
X99073866Y-132509523D01*
X99073866Y-132509523D02*
X99264342Y-132461904D01*
X99264342Y-132461904D02*
X99359580Y-132414285D01*
X99359580Y-132414285D02*
X99407200Y-132366666D01*
X99407200Y-132366666D02*
X99454819Y-132271428D01*
X99454819Y-132271428D02*
X99454819Y-132176190D01*
X99454819Y-132176190D02*
X99407200Y-132080952D01*
X99407200Y-132080952D02*
X99359580Y-132033333D01*
X99359580Y-132033333D02*
X99264342Y-131985714D01*
X99264342Y-131985714D02*
X99073866Y-131938095D01*
X99073866Y-131938095D02*
X98835771Y-131938095D01*
X98835771Y-131938095D02*
X98645295Y-131985714D01*
X98645295Y-131985714D02*
X98550057Y-132033333D01*
X98550057Y-132033333D02*
X98502438Y-132080952D01*
X98502438Y-132080952D02*
X98454819Y-132176190D01*
X98454819Y-133128571D02*
X98454819Y-133223809D01*
X98454819Y-133223809D02*
X98502438Y-133319047D01*
X98502438Y-133319047D02*
X98550057Y-133366666D01*
X98550057Y-133366666D02*
X98645295Y-133414285D01*
X98645295Y-133414285D02*
X98835771Y-133461904D01*
X98835771Y-133461904D02*
X99073866Y-133461904D01*
X99073866Y-133461904D02*
X99264342Y-133414285D01*
X99264342Y-133414285D02*
X99359580Y-133366666D01*
X99359580Y-133366666D02*
X99407200Y-133319047D01*
X99407200Y-133319047D02*
X99454819Y-133223809D01*
X99454819Y-133223809D02*
X99454819Y-133128571D01*
X99454819Y-133128571D02*
X99407200Y-133033333D01*
X99407200Y-133033333D02*
X99359580Y-132985714D01*
X99359580Y-132985714D02*
X99264342Y-132938095D01*
X99264342Y-132938095D02*
X99073866Y-132890476D01*
X99073866Y-132890476D02*
X98835771Y-132890476D01*
X98835771Y-132890476D02*
X98645295Y-132938095D01*
X98645295Y-132938095D02*
X98550057Y-132985714D01*
X98550057Y-132985714D02*
X98502438Y-133033333D01*
X98502438Y-133033333D02*
X98454819Y-133128571D01*
X99454819Y-134414285D02*
X99454819Y-133842857D01*
X99454819Y-134128571D02*
X98454819Y-134128571D01*
X98454819Y-134128571D02*
X98597676Y-134033333D01*
X98597676Y-134033333D02*
X98692914Y-133938095D01*
X98692914Y-133938095D02*
X98740533Y-133842857D01*
X108393114Y-140274891D02*
X107916923Y-139941558D01*
X108393114Y-139703463D02*
X107393114Y-139703463D01*
X107393114Y-139703463D02*
X107393114Y-140084415D01*
X107393114Y-140084415D02*
X107440733Y-140179653D01*
X107440733Y-140179653D02*
X107488352Y-140227272D01*
X107488352Y-140227272D02*
X107583590Y-140274891D01*
X107583590Y-140274891D02*
X107726447Y-140274891D01*
X107726447Y-140274891D02*
X107821685Y-140227272D01*
X107821685Y-140227272D02*
X107869304Y-140179653D01*
X107869304Y-140179653D02*
X107916923Y-140084415D01*
X107916923Y-140084415D02*
X107916923Y-139703463D01*
X107726447Y-141132034D02*
X108393114Y-141132034D01*
X107345495Y-140893939D02*
X108059780Y-140655844D01*
X108059780Y-140655844D02*
X108059780Y-141274891D01*
X107393114Y-141846320D02*
X107393114Y-141941558D01*
X107393114Y-141941558D02*
X107440733Y-142036796D01*
X107440733Y-142036796D02*
X107488352Y-142084415D01*
X107488352Y-142084415D02*
X107583590Y-142132034D01*
X107583590Y-142132034D02*
X107774066Y-142179653D01*
X107774066Y-142179653D02*
X108012161Y-142179653D01*
X108012161Y-142179653D02*
X108202637Y-142132034D01*
X108202637Y-142132034D02*
X108297875Y-142084415D01*
X108297875Y-142084415D02*
X108345495Y-142036796D01*
X108345495Y-142036796D02*
X108393114Y-141941558D01*
X108393114Y-141941558D02*
X108393114Y-141846320D01*
X108393114Y-141846320D02*
X108345495Y-141751082D01*
X108345495Y-141751082D02*
X108297875Y-141703463D01*
X108297875Y-141703463D02*
X108202637Y-141655844D01*
X108202637Y-141655844D02*
X108012161Y-141608225D01*
X108012161Y-141608225D02*
X107774066Y-141608225D01*
X107774066Y-141608225D02*
X107583590Y-141655844D01*
X107583590Y-141655844D02*
X107488352Y-141703463D01*
X107488352Y-141703463D02*
X107440733Y-141751082D01*
X107440733Y-141751082D02*
X107393114Y-141846320D01*
X107488352Y-142560606D02*
X107440733Y-142608225D01*
X107440733Y-142608225D02*
X107393114Y-142703463D01*
X107393114Y-142703463D02*
X107393114Y-142941558D01*
X107393114Y-142941558D02*
X107440733Y-143036796D01*
X107440733Y-143036796D02*
X107488352Y-143084415D01*
X107488352Y-143084415D02*
X107583590Y-143132034D01*
X107583590Y-143132034D02*
X107678828Y-143132034D01*
X107678828Y-143132034D02*
X107821685Y-143084415D01*
X107821685Y-143084415D02*
X108393114Y-142512987D01*
X108393114Y-142512987D02*
X108393114Y-143132034D01*
X116854819Y-140403463D02*
X117664342Y-140403463D01*
X117664342Y-140403463D02*
X117759580Y-140451082D01*
X117759580Y-140451082D02*
X117807200Y-140498701D01*
X117807200Y-140498701D02*
X117854819Y-140593939D01*
X117854819Y-140593939D02*
X117854819Y-140784415D01*
X117854819Y-140784415D02*
X117807200Y-140879653D01*
X117807200Y-140879653D02*
X117759580Y-140927272D01*
X117759580Y-140927272D02*
X117664342Y-140974891D01*
X117664342Y-140974891D02*
X116854819Y-140974891D01*
X117854819Y-141974891D02*
X117854819Y-141403463D01*
X117854819Y-141689177D02*
X116854819Y-141689177D01*
X116854819Y-141689177D02*
X116997676Y-141593939D01*
X116997676Y-141593939D02*
X117092914Y-141498701D01*
X117092914Y-141498701D02*
X117140533Y-141403463D01*
X116854819Y-142593939D02*
X116854819Y-142689177D01*
X116854819Y-142689177D02*
X116902438Y-142784415D01*
X116902438Y-142784415D02*
X116950057Y-142832034D01*
X116950057Y-142832034D02*
X117045295Y-142879653D01*
X117045295Y-142879653D02*
X117235771Y-142927272D01*
X117235771Y-142927272D02*
X117473866Y-142927272D01*
X117473866Y-142927272D02*
X117664342Y-142879653D01*
X117664342Y-142879653D02*
X117759580Y-142832034D01*
X117759580Y-142832034D02*
X117807200Y-142784415D01*
X117807200Y-142784415D02*
X117854819Y-142689177D01*
X117854819Y-142689177D02*
X117854819Y-142593939D01*
X117854819Y-142593939D02*
X117807200Y-142498701D01*
X117807200Y-142498701D02*
X117759580Y-142451082D01*
X117759580Y-142451082D02*
X117664342Y-142403463D01*
X117664342Y-142403463D02*
X117473866Y-142355844D01*
X117473866Y-142355844D02*
X117235771Y-142355844D01*
X117235771Y-142355844D02*
X117045295Y-142403463D01*
X117045295Y-142403463D02*
X116950057Y-142451082D01*
X116950057Y-142451082D02*
X116902438Y-142498701D01*
X116902438Y-142498701D02*
X116854819Y-142593939D01*
X116854819Y-143546320D02*
X116854819Y-143641558D01*
X116854819Y-143641558D02*
X116902438Y-143736796D01*
X116902438Y-143736796D02*
X116950057Y-143784415D01*
X116950057Y-143784415D02*
X117045295Y-143832034D01*
X117045295Y-143832034D02*
X117235771Y-143879653D01*
X117235771Y-143879653D02*
X117473866Y-143879653D01*
X117473866Y-143879653D02*
X117664342Y-143832034D01*
X117664342Y-143832034D02*
X117759580Y-143784415D01*
X117759580Y-143784415D02*
X117807200Y-143736796D01*
X117807200Y-143736796D02*
X117854819Y-143641558D01*
X117854819Y-143641558D02*
X117854819Y-143546320D01*
X117854819Y-143546320D02*
X117807200Y-143451082D01*
X117807200Y-143451082D02*
X117759580Y-143403463D01*
X117759580Y-143403463D02*
X117664342Y-143355844D01*
X117664342Y-143355844D02*
X117473866Y-143308225D01*
X117473866Y-143308225D02*
X117235771Y-143308225D01*
X117235771Y-143308225D02*
X117045295Y-143355844D01*
X117045295Y-143355844D02*
X116950057Y-143403463D01*
X116950057Y-143403463D02*
X116902438Y-143451082D01*
X116902438Y-143451082D02*
X116854819Y-143546320D01*
X116854819Y-144784415D02*
X116854819Y-144308225D01*
X116854819Y-144308225D02*
X117331009Y-144260606D01*
X117331009Y-144260606D02*
X117283390Y-144308225D01*
X117283390Y-144308225D02*
X117235771Y-144403463D01*
X117235771Y-144403463D02*
X117235771Y-144641558D01*
X117235771Y-144641558D02*
X117283390Y-144736796D01*
X117283390Y-144736796D02*
X117331009Y-144784415D01*
X117331009Y-144784415D02*
X117426247Y-144832034D01*
X117426247Y-144832034D02*
X117664342Y-144832034D01*
X117664342Y-144832034D02*
X117759580Y-144784415D01*
X117759580Y-144784415D02*
X117807200Y-144736796D01*
X117807200Y-144736796D02*
X117854819Y-144641558D01*
X117854819Y-144641558D02*
X117854819Y-144403463D01*
X117854819Y-144403463D02*
X117807200Y-144308225D01*
X117807200Y-144308225D02*
X117759580Y-144260606D01*
X71209580Y-92880952D02*
X71257200Y-92833333D01*
X71257200Y-92833333D02*
X71304819Y-92690476D01*
X71304819Y-92690476D02*
X71304819Y-92595238D01*
X71304819Y-92595238D02*
X71257200Y-92452381D01*
X71257200Y-92452381D02*
X71161961Y-92357143D01*
X71161961Y-92357143D02*
X71066723Y-92309524D01*
X71066723Y-92309524D02*
X70876247Y-92261905D01*
X70876247Y-92261905D02*
X70733390Y-92261905D01*
X70733390Y-92261905D02*
X70542914Y-92309524D01*
X70542914Y-92309524D02*
X70447676Y-92357143D01*
X70447676Y-92357143D02*
X70352438Y-92452381D01*
X70352438Y-92452381D02*
X70304819Y-92595238D01*
X70304819Y-92595238D02*
X70304819Y-92690476D01*
X70304819Y-92690476D02*
X70352438Y-92833333D01*
X70352438Y-92833333D02*
X70400057Y-92880952D01*
X71304819Y-93357143D02*
X71304819Y-93547619D01*
X71304819Y-93547619D02*
X71257200Y-93642857D01*
X71257200Y-93642857D02*
X71209580Y-93690476D01*
X71209580Y-93690476D02*
X71066723Y-93785714D01*
X71066723Y-93785714D02*
X70876247Y-93833333D01*
X70876247Y-93833333D02*
X70495295Y-93833333D01*
X70495295Y-93833333D02*
X70400057Y-93785714D01*
X70400057Y-93785714D02*
X70352438Y-93738095D01*
X70352438Y-93738095D02*
X70304819Y-93642857D01*
X70304819Y-93642857D02*
X70304819Y-93452381D01*
X70304819Y-93452381D02*
X70352438Y-93357143D01*
X70352438Y-93357143D02*
X70400057Y-93309524D01*
X70400057Y-93309524D02*
X70495295Y-93261905D01*
X70495295Y-93261905D02*
X70733390Y-93261905D01*
X70733390Y-93261905D02*
X70828628Y-93309524D01*
X70828628Y-93309524D02*
X70876247Y-93357143D01*
X70876247Y-93357143D02*
X70923866Y-93452381D01*
X70923866Y-93452381D02*
X70923866Y-93642857D01*
X70923866Y-93642857D02*
X70876247Y-93738095D01*
X70876247Y-93738095D02*
X70828628Y-93785714D01*
X70828628Y-93785714D02*
X70733390Y-93833333D01*
X70304819Y-94452381D02*
X70304819Y-94547619D01*
X70304819Y-94547619D02*
X70352438Y-94642857D01*
X70352438Y-94642857D02*
X70400057Y-94690476D01*
X70400057Y-94690476D02*
X70495295Y-94738095D01*
X70495295Y-94738095D02*
X70685771Y-94785714D01*
X70685771Y-94785714D02*
X70923866Y-94785714D01*
X70923866Y-94785714D02*
X71114342Y-94738095D01*
X71114342Y-94738095D02*
X71209580Y-94690476D01*
X71209580Y-94690476D02*
X71257200Y-94642857D01*
X71257200Y-94642857D02*
X71304819Y-94547619D01*
X71304819Y-94547619D02*
X71304819Y-94452381D01*
X71304819Y-94452381D02*
X71257200Y-94357143D01*
X71257200Y-94357143D02*
X71209580Y-94309524D01*
X71209580Y-94309524D02*
X71114342Y-94261905D01*
X71114342Y-94261905D02*
X70923866Y-94214286D01*
X70923866Y-94214286D02*
X70685771Y-94214286D01*
X70685771Y-94214286D02*
X70495295Y-94261905D01*
X70495295Y-94261905D02*
X70400057Y-94309524D01*
X70400057Y-94309524D02*
X70352438Y-94357143D01*
X70352438Y-94357143D02*
X70304819Y-94452381D01*
X70304819Y-95119048D02*
X70304819Y-95738095D01*
X70304819Y-95738095D02*
X70685771Y-95404762D01*
X70685771Y-95404762D02*
X70685771Y-95547619D01*
X70685771Y-95547619D02*
X70733390Y-95642857D01*
X70733390Y-95642857D02*
X70781009Y-95690476D01*
X70781009Y-95690476D02*
X70876247Y-95738095D01*
X70876247Y-95738095D02*
X71114342Y-95738095D01*
X71114342Y-95738095D02*
X71209580Y-95690476D01*
X71209580Y-95690476D02*
X71257200Y-95642857D01*
X71257200Y-95642857D02*
X71304819Y-95547619D01*
X71304819Y-95547619D02*
X71304819Y-95261905D01*
X71304819Y-95261905D02*
X71257200Y-95166667D01*
X71257200Y-95166667D02*
X71209580Y-95119048D01*
X94854819Y-125404761D02*
X94378628Y-125071428D01*
X94854819Y-124833333D02*
X93854819Y-124833333D01*
X93854819Y-124833333D02*
X93854819Y-125214285D01*
X93854819Y-125214285D02*
X93902438Y-125309523D01*
X93902438Y-125309523D02*
X93950057Y-125357142D01*
X93950057Y-125357142D02*
X94045295Y-125404761D01*
X94045295Y-125404761D02*
X94188152Y-125404761D01*
X94188152Y-125404761D02*
X94283390Y-125357142D01*
X94283390Y-125357142D02*
X94331009Y-125309523D01*
X94331009Y-125309523D02*
X94378628Y-125214285D01*
X94378628Y-125214285D02*
X94378628Y-124833333D01*
X94854819Y-126357142D02*
X94854819Y-125785714D01*
X94854819Y-126071428D02*
X93854819Y-126071428D01*
X93854819Y-126071428D02*
X93997676Y-125976190D01*
X93997676Y-125976190D02*
X94092914Y-125880952D01*
X94092914Y-125880952D02*
X94140533Y-125785714D01*
X93854819Y-126976190D02*
X93854819Y-127071428D01*
X93854819Y-127071428D02*
X93902438Y-127166666D01*
X93902438Y-127166666D02*
X93950057Y-127214285D01*
X93950057Y-127214285D02*
X94045295Y-127261904D01*
X94045295Y-127261904D02*
X94235771Y-127309523D01*
X94235771Y-127309523D02*
X94473866Y-127309523D01*
X94473866Y-127309523D02*
X94664342Y-127261904D01*
X94664342Y-127261904D02*
X94759580Y-127214285D01*
X94759580Y-127214285D02*
X94807200Y-127166666D01*
X94807200Y-127166666D02*
X94854819Y-127071428D01*
X94854819Y-127071428D02*
X94854819Y-126976190D01*
X94854819Y-126976190D02*
X94807200Y-126880952D01*
X94807200Y-126880952D02*
X94759580Y-126833333D01*
X94759580Y-126833333D02*
X94664342Y-126785714D01*
X94664342Y-126785714D02*
X94473866Y-126738095D01*
X94473866Y-126738095D02*
X94235771Y-126738095D01*
X94235771Y-126738095D02*
X94045295Y-126785714D01*
X94045295Y-126785714D02*
X93950057Y-126833333D01*
X93950057Y-126833333D02*
X93902438Y-126880952D01*
X93902438Y-126880952D02*
X93854819Y-126976190D01*
X93854819Y-127928571D02*
X93854819Y-128023809D01*
X93854819Y-128023809D02*
X93902438Y-128119047D01*
X93902438Y-128119047D02*
X93950057Y-128166666D01*
X93950057Y-128166666D02*
X94045295Y-128214285D01*
X94045295Y-128214285D02*
X94235771Y-128261904D01*
X94235771Y-128261904D02*
X94473866Y-128261904D01*
X94473866Y-128261904D02*
X94664342Y-128214285D01*
X94664342Y-128214285D02*
X94759580Y-128166666D01*
X94759580Y-128166666D02*
X94807200Y-128119047D01*
X94807200Y-128119047D02*
X94854819Y-128023809D01*
X94854819Y-128023809D02*
X94854819Y-127928571D01*
X94854819Y-127928571D02*
X94807200Y-127833333D01*
X94807200Y-127833333D02*
X94759580Y-127785714D01*
X94759580Y-127785714D02*
X94664342Y-127738095D01*
X94664342Y-127738095D02*
X94473866Y-127690476D01*
X94473866Y-127690476D02*
X94235771Y-127690476D01*
X94235771Y-127690476D02*
X94045295Y-127738095D01*
X94045295Y-127738095D02*
X93950057Y-127785714D01*
X93950057Y-127785714D02*
X93902438Y-127833333D01*
X93902438Y-127833333D02*
X93854819Y-127928571D01*
X93854819Y-129166666D02*
X93854819Y-128690476D01*
X93854819Y-128690476D02*
X94331009Y-128642857D01*
X94331009Y-128642857D02*
X94283390Y-128690476D01*
X94283390Y-128690476D02*
X94235771Y-128785714D01*
X94235771Y-128785714D02*
X94235771Y-129023809D01*
X94235771Y-129023809D02*
X94283390Y-129119047D01*
X94283390Y-129119047D02*
X94331009Y-129166666D01*
X94331009Y-129166666D02*
X94426247Y-129214285D01*
X94426247Y-129214285D02*
X94664342Y-129214285D01*
X94664342Y-129214285D02*
X94759580Y-129166666D01*
X94759580Y-129166666D02*
X94807200Y-129119047D01*
X94807200Y-129119047D02*
X94854819Y-129023809D01*
X94854819Y-129023809D02*
X94854819Y-128785714D01*
X94854819Y-128785714D02*
X94807200Y-128690476D01*
X94807200Y-128690476D02*
X94759580Y-128642857D01*
X75569047Y-120284819D02*
X75902380Y-119808628D01*
X76140475Y-120284819D02*
X76140475Y-119284819D01*
X76140475Y-119284819D02*
X75759523Y-119284819D01*
X75759523Y-119284819D02*
X75664285Y-119332438D01*
X75664285Y-119332438D02*
X75616666Y-119380057D01*
X75616666Y-119380057D02*
X75569047Y-119475295D01*
X75569047Y-119475295D02*
X75569047Y-119618152D01*
X75569047Y-119618152D02*
X75616666Y-119713390D01*
X75616666Y-119713390D02*
X75664285Y-119761009D01*
X75664285Y-119761009D02*
X75759523Y-119808628D01*
X75759523Y-119808628D02*
X76140475Y-119808628D01*
X75235713Y-119284819D02*
X74616666Y-119284819D01*
X74616666Y-119284819D02*
X74949999Y-119665771D01*
X74949999Y-119665771D02*
X74807142Y-119665771D01*
X74807142Y-119665771D02*
X74711904Y-119713390D01*
X74711904Y-119713390D02*
X74664285Y-119761009D01*
X74664285Y-119761009D02*
X74616666Y-119856247D01*
X74616666Y-119856247D02*
X74616666Y-120094342D01*
X74616666Y-120094342D02*
X74664285Y-120189580D01*
X74664285Y-120189580D02*
X74711904Y-120237200D01*
X74711904Y-120237200D02*
X74807142Y-120284819D01*
X74807142Y-120284819D02*
X75092856Y-120284819D01*
X75092856Y-120284819D02*
X75188094Y-120237200D01*
X75188094Y-120237200D02*
X75235713Y-120189580D01*
X73997618Y-119284819D02*
X73902380Y-119284819D01*
X73902380Y-119284819D02*
X73807142Y-119332438D01*
X73807142Y-119332438D02*
X73759523Y-119380057D01*
X73759523Y-119380057D02*
X73711904Y-119475295D01*
X73711904Y-119475295D02*
X73664285Y-119665771D01*
X73664285Y-119665771D02*
X73664285Y-119903866D01*
X73664285Y-119903866D02*
X73711904Y-120094342D01*
X73711904Y-120094342D02*
X73759523Y-120189580D01*
X73759523Y-120189580D02*
X73807142Y-120237200D01*
X73807142Y-120237200D02*
X73902380Y-120284819D01*
X73902380Y-120284819D02*
X73997618Y-120284819D01*
X73997618Y-120284819D02*
X74092856Y-120237200D01*
X74092856Y-120237200D02*
X74140475Y-120189580D01*
X74140475Y-120189580D02*
X74188094Y-120094342D01*
X74188094Y-120094342D02*
X74235713Y-119903866D01*
X74235713Y-119903866D02*
X74235713Y-119665771D01*
X74235713Y-119665771D02*
X74188094Y-119475295D01*
X74188094Y-119475295D02*
X74140475Y-119380057D01*
X74140475Y-119380057D02*
X74092856Y-119332438D01*
X74092856Y-119332438D02*
X73997618Y-119284819D01*
X72759523Y-119284819D02*
X73235713Y-119284819D01*
X73235713Y-119284819D02*
X73283332Y-119761009D01*
X73283332Y-119761009D02*
X73235713Y-119713390D01*
X73235713Y-119713390D02*
X73140475Y-119665771D01*
X73140475Y-119665771D02*
X72902380Y-119665771D01*
X72902380Y-119665771D02*
X72807142Y-119713390D01*
X72807142Y-119713390D02*
X72759523Y-119761009D01*
X72759523Y-119761009D02*
X72711904Y-119856247D01*
X72711904Y-119856247D02*
X72711904Y-120094342D01*
X72711904Y-120094342D02*
X72759523Y-120189580D01*
X72759523Y-120189580D02*
X72807142Y-120237200D01*
X72807142Y-120237200D02*
X72902380Y-120284819D01*
X72902380Y-120284819D02*
X73140475Y-120284819D01*
X73140475Y-120284819D02*
X73235713Y-120237200D01*
X73235713Y-120237200D02*
X73283332Y-120189580D01*
X105577875Y-142598700D02*
X105625495Y-142551081D01*
X105625495Y-142551081D02*
X105673114Y-142408224D01*
X105673114Y-142408224D02*
X105673114Y-142312986D01*
X105673114Y-142312986D02*
X105625495Y-142170129D01*
X105625495Y-142170129D02*
X105530256Y-142074891D01*
X105530256Y-142074891D02*
X105435018Y-142027272D01*
X105435018Y-142027272D02*
X105244542Y-141979653D01*
X105244542Y-141979653D02*
X105101685Y-141979653D01*
X105101685Y-141979653D02*
X104911209Y-142027272D01*
X104911209Y-142027272D02*
X104815971Y-142074891D01*
X104815971Y-142074891D02*
X104720733Y-142170129D01*
X104720733Y-142170129D02*
X104673114Y-142312986D01*
X104673114Y-142312986D02*
X104673114Y-142408224D01*
X104673114Y-142408224D02*
X104720733Y-142551081D01*
X104720733Y-142551081D02*
X104768352Y-142598700D01*
X105673114Y-143551081D02*
X105673114Y-142979653D01*
X105673114Y-143265367D02*
X104673114Y-143265367D01*
X104673114Y-143265367D02*
X104815971Y-143170129D01*
X104815971Y-143170129D02*
X104911209Y-143074891D01*
X104911209Y-143074891D02*
X104958828Y-142979653D01*
X104673114Y-144170129D02*
X104673114Y-144265367D01*
X104673114Y-144265367D02*
X104720733Y-144360605D01*
X104720733Y-144360605D02*
X104768352Y-144408224D01*
X104768352Y-144408224D02*
X104863590Y-144455843D01*
X104863590Y-144455843D02*
X105054066Y-144503462D01*
X105054066Y-144503462D02*
X105292161Y-144503462D01*
X105292161Y-144503462D02*
X105482637Y-144455843D01*
X105482637Y-144455843D02*
X105577875Y-144408224D01*
X105577875Y-144408224D02*
X105625495Y-144360605D01*
X105625495Y-144360605D02*
X105673114Y-144265367D01*
X105673114Y-144265367D02*
X105673114Y-144170129D01*
X105673114Y-144170129D02*
X105625495Y-144074891D01*
X105625495Y-144074891D02*
X105577875Y-144027272D01*
X105577875Y-144027272D02*
X105482637Y-143979653D01*
X105482637Y-143979653D02*
X105292161Y-143932034D01*
X105292161Y-143932034D02*
X105054066Y-143932034D01*
X105054066Y-143932034D02*
X104863590Y-143979653D01*
X104863590Y-143979653D02*
X104768352Y-144027272D01*
X104768352Y-144027272D02*
X104720733Y-144074891D01*
X104720733Y-144074891D02*
X104673114Y-144170129D01*
X104673114Y-145122510D02*
X104673114Y-145217748D01*
X104673114Y-145217748D02*
X104720733Y-145312986D01*
X104720733Y-145312986D02*
X104768352Y-145360605D01*
X104768352Y-145360605D02*
X104863590Y-145408224D01*
X104863590Y-145408224D02*
X105054066Y-145455843D01*
X105054066Y-145455843D02*
X105292161Y-145455843D01*
X105292161Y-145455843D02*
X105482637Y-145408224D01*
X105482637Y-145408224D02*
X105577875Y-145360605D01*
X105577875Y-145360605D02*
X105625495Y-145312986D01*
X105625495Y-145312986D02*
X105673114Y-145217748D01*
X105673114Y-145217748D02*
X105673114Y-145122510D01*
X105673114Y-145122510D02*
X105625495Y-145027272D01*
X105625495Y-145027272D02*
X105577875Y-144979653D01*
X105577875Y-144979653D02*
X105482637Y-144932034D01*
X105482637Y-144932034D02*
X105292161Y-144884415D01*
X105292161Y-144884415D02*
X105054066Y-144884415D01*
X105054066Y-144884415D02*
X104863590Y-144932034D01*
X104863590Y-144932034D02*
X104768352Y-144979653D01*
X104768352Y-144979653D02*
X104720733Y-145027272D01*
X104720733Y-145027272D02*
X104673114Y-145122510D01*
X104673114Y-146360605D02*
X104673114Y-145884415D01*
X104673114Y-145884415D02*
X105149304Y-145836796D01*
X105149304Y-145836796D02*
X105101685Y-145884415D01*
X105101685Y-145884415D02*
X105054066Y-145979653D01*
X105054066Y-145979653D02*
X105054066Y-146217748D01*
X105054066Y-146217748D02*
X105101685Y-146312986D01*
X105101685Y-146312986D02*
X105149304Y-146360605D01*
X105149304Y-146360605D02*
X105244542Y-146408224D01*
X105244542Y-146408224D02*
X105482637Y-146408224D01*
X105482637Y-146408224D02*
X105577875Y-146360605D01*
X105577875Y-146360605D02*
X105625495Y-146312986D01*
X105625495Y-146312986D02*
X105673114Y-146217748D01*
X105673114Y-146217748D02*
X105673114Y-145979653D01*
X105673114Y-145979653D02*
X105625495Y-145884415D01*
X105625495Y-145884415D02*
X105577875Y-145836796D01*
X113759580Y-154680952D02*
X113807200Y-154633333D01*
X113807200Y-154633333D02*
X113854819Y-154490476D01*
X113854819Y-154490476D02*
X113854819Y-154395238D01*
X113854819Y-154395238D02*
X113807200Y-154252381D01*
X113807200Y-154252381D02*
X113711961Y-154157143D01*
X113711961Y-154157143D02*
X113616723Y-154109524D01*
X113616723Y-154109524D02*
X113426247Y-154061905D01*
X113426247Y-154061905D02*
X113283390Y-154061905D01*
X113283390Y-154061905D02*
X113092914Y-154109524D01*
X113092914Y-154109524D02*
X112997676Y-154157143D01*
X112997676Y-154157143D02*
X112902438Y-154252381D01*
X112902438Y-154252381D02*
X112854819Y-154395238D01*
X112854819Y-154395238D02*
X112854819Y-154490476D01*
X112854819Y-154490476D02*
X112902438Y-154633333D01*
X112902438Y-154633333D02*
X112950057Y-154680952D01*
X113188152Y-155538095D02*
X113854819Y-155538095D01*
X112807200Y-155300000D02*
X113521485Y-155061905D01*
X113521485Y-155061905D02*
X113521485Y-155680952D01*
X112854819Y-156252381D02*
X112854819Y-156347619D01*
X112854819Y-156347619D02*
X112902438Y-156442857D01*
X112902438Y-156442857D02*
X112950057Y-156490476D01*
X112950057Y-156490476D02*
X113045295Y-156538095D01*
X113045295Y-156538095D02*
X113235771Y-156585714D01*
X113235771Y-156585714D02*
X113473866Y-156585714D01*
X113473866Y-156585714D02*
X113664342Y-156538095D01*
X113664342Y-156538095D02*
X113759580Y-156490476D01*
X113759580Y-156490476D02*
X113807200Y-156442857D01*
X113807200Y-156442857D02*
X113854819Y-156347619D01*
X113854819Y-156347619D02*
X113854819Y-156252381D01*
X113854819Y-156252381D02*
X113807200Y-156157143D01*
X113807200Y-156157143D02*
X113759580Y-156109524D01*
X113759580Y-156109524D02*
X113664342Y-156061905D01*
X113664342Y-156061905D02*
X113473866Y-156014286D01*
X113473866Y-156014286D02*
X113235771Y-156014286D01*
X113235771Y-156014286D02*
X113045295Y-156061905D01*
X113045295Y-156061905D02*
X112950057Y-156109524D01*
X112950057Y-156109524D02*
X112902438Y-156157143D01*
X112902438Y-156157143D02*
X112854819Y-156252381D01*
X113854819Y-157061905D02*
X113854819Y-157252381D01*
X113854819Y-157252381D02*
X113807200Y-157347619D01*
X113807200Y-157347619D02*
X113759580Y-157395238D01*
X113759580Y-157395238D02*
X113616723Y-157490476D01*
X113616723Y-157490476D02*
X113426247Y-157538095D01*
X113426247Y-157538095D02*
X113045295Y-157538095D01*
X113045295Y-157538095D02*
X112950057Y-157490476D01*
X112950057Y-157490476D02*
X112902438Y-157442857D01*
X112902438Y-157442857D02*
X112854819Y-157347619D01*
X112854819Y-157347619D02*
X112854819Y-157157143D01*
X112854819Y-157157143D02*
X112902438Y-157061905D01*
X112902438Y-157061905D02*
X112950057Y-157014286D01*
X112950057Y-157014286D02*
X113045295Y-156966667D01*
X113045295Y-156966667D02*
X113283390Y-156966667D01*
X113283390Y-156966667D02*
X113378628Y-157014286D01*
X113378628Y-157014286D02*
X113426247Y-157061905D01*
X113426247Y-157061905D02*
X113473866Y-157157143D01*
X113473866Y-157157143D02*
X113473866Y-157347619D01*
X113473866Y-157347619D02*
X113426247Y-157442857D01*
X113426247Y-157442857D02*
X113378628Y-157490476D01*
X113378628Y-157490476D02*
X113283390Y-157538095D01*
X63556547Y-116309580D02*
X63604166Y-116357200D01*
X63604166Y-116357200D02*
X63747023Y-116404819D01*
X63747023Y-116404819D02*
X63842261Y-116404819D01*
X63842261Y-116404819D02*
X63985118Y-116357200D01*
X63985118Y-116357200D02*
X64080356Y-116261961D01*
X64080356Y-116261961D02*
X64127975Y-116166723D01*
X64127975Y-116166723D02*
X64175594Y-115976247D01*
X64175594Y-115976247D02*
X64175594Y-115833390D01*
X64175594Y-115833390D02*
X64127975Y-115642914D01*
X64127975Y-115642914D02*
X64080356Y-115547676D01*
X64080356Y-115547676D02*
X63985118Y-115452438D01*
X63985118Y-115452438D02*
X63842261Y-115404819D01*
X63842261Y-115404819D02*
X63747023Y-115404819D01*
X63747023Y-115404819D02*
X63604166Y-115452438D01*
X63604166Y-115452438D02*
X63556547Y-115500057D01*
X63223213Y-115404819D02*
X62604166Y-115404819D01*
X62604166Y-115404819D02*
X62937499Y-115785771D01*
X62937499Y-115785771D02*
X62794642Y-115785771D01*
X62794642Y-115785771D02*
X62699404Y-115833390D01*
X62699404Y-115833390D02*
X62651785Y-115881009D01*
X62651785Y-115881009D02*
X62604166Y-115976247D01*
X62604166Y-115976247D02*
X62604166Y-116214342D01*
X62604166Y-116214342D02*
X62651785Y-116309580D01*
X62651785Y-116309580D02*
X62699404Y-116357200D01*
X62699404Y-116357200D02*
X62794642Y-116404819D01*
X62794642Y-116404819D02*
X63080356Y-116404819D01*
X63080356Y-116404819D02*
X63175594Y-116357200D01*
X63175594Y-116357200D02*
X63223213Y-116309580D01*
X61985118Y-115404819D02*
X61889880Y-115404819D01*
X61889880Y-115404819D02*
X61794642Y-115452438D01*
X61794642Y-115452438D02*
X61747023Y-115500057D01*
X61747023Y-115500057D02*
X61699404Y-115595295D01*
X61699404Y-115595295D02*
X61651785Y-115785771D01*
X61651785Y-115785771D02*
X61651785Y-116023866D01*
X61651785Y-116023866D02*
X61699404Y-116214342D01*
X61699404Y-116214342D02*
X61747023Y-116309580D01*
X61747023Y-116309580D02*
X61794642Y-116357200D01*
X61794642Y-116357200D02*
X61889880Y-116404819D01*
X61889880Y-116404819D02*
X61985118Y-116404819D01*
X61985118Y-116404819D02*
X62080356Y-116357200D01*
X62080356Y-116357200D02*
X62127975Y-116309580D01*
X62127975Y-116309580D02*
X62175594Y-116214342D01*
X62175594Y-116214342D02*
X62223213Y-116023866D01*
X62223213Y-116023866D02*
X62223213Y-115785771D01*
X62223213Y-115785771D02*
X62175594Y-115595295D01*
X62175594Y-115595295D02*
X62127975Y-115500057D01*
X62127975Y-115500057D02*
X62080356Y-115452438D01*
X62080356Y-115452438D02*
X61985118Y-115404819D01*
X61080356Y-115833390D02*
X61175594Y-115785771D01*
X61175594Y-115785771D02*
X61223213Y-115738152D01*
X61223213Y-115738152D02*
X61270832Y-115642914D01*
X61270832Y-115642914D02*
X61270832Y-115595295D01*
X61270832Y-115595295D02*
X61223213Y-115500057D01*
X61223213Y-115500057D02*
X61175594Y-115452438D01*
X61175594Y-115452438D02*
X61080356Y-115404819D01*
X61080356Y-115404819D02*
X60889880Y-115404819D01*
X60889880Y-115404819D02*
X60794642Y-115452438D01*
X60794642Y-115452438D02*
X60747023Y-115500057D01*
X60747023Y-115500057D02*
X60699404Y-115595295D01*
X60699404Y-115595295D02*
X60699404Y-115642914D01*
X60699404Y-115642914D02*
X60747023Y-115738152D01*
X60747023Y-115738152D02*
X60794642Y-115785771D01*
X60794642Y-115785771D02*
X60889880Y-115833390D01*
X60889880Y-115833390D02*
X61080356Y-115833390D01*
X61080356Y-115833390D02*
X61175594Y-115881009D01*
X61175594Y-115881009D02*
X61223213Y-115928628D01*
X61223213Y-115928628D02*
X61270832Y-116023866D01*
X61270832Y-116023866D02*
X61270832Y-116214342D01*
X61270832Y-116214342D02*
X61223213Y-116309580D01*
X61223213Y-116309580D02*
X61175594Y-116357200D01*
X61175594Y-116357200D02*
X61080356Y-116404819D01*
X61080356Y-116404819D02*
X60889880Y-116404819D01*
X60889880Y-116404819D02*
X60794642Y-116357200D01*
X60794642Y-116357200D02*
X60747023Y-116309580D01*
X60747023Y-116309580D02*
X60699404Y-116214342D01*
X60699404Y-116214342D02*
X60699404Y-116023866D01*
X60699404Y-116023866D02*
X60747023Y-115928628D01*
X60747023Y-115928628D02*
X60794642Y-115881009D01*
X60794642Y-115881009D02*
X60889880Y-115833390D01*
X75654819Y-135080952D02*
X75178628Y-134747619D01*
X75654819Y-134509524D02*
X74654819Y-134509524D01*
X74654819Y-134509524D02*
X74654819Y-134890476D01*
X74654819Y-134890476D02*
X74702438Y-134985714D01*
X74702438Y-134985714D02*
X74750057Y-135033333D01*
X74750057Y-135033333D02*
X74845295Y-135080952D01*
X74845295Y-135080952D02*
X74988152Y-135080952D01*
X74988152Y-135080952D02*
X75083390Y-135033333D01*
X75083390Y-135033333D02*
X75131009Y-134985714D01*
X75131009Y-134985714D02*
X75178628Y-134890476D01*
X75178628Y-134890476D02*
X75178628Y-134509524D01*
X74654819Y-135414286D02*
X74654819Y-136080952D01*
X74654819Y-136080952D02*
X75654819Y-135652381D01*
X74654819Y-136652381D02*
X74654819Y-136747619D01*
X74654819Y-136747619D02*
X74702438Y-136842857D01*
X74702438Y-136842857D02*
X74750057Y-136890476D01*
X74750057Y-136890476D02*
X74845295Y-136938095D01*
X74845295Y-136938095D02*
X75035771Y-136985714D01*
X75035771Y-136985714D02*
X75273866Y-136985714D01*
X75273866Y-136985714D02*
X75464342Y-136938095D01*
X75464342Y-136938095D02*
X75559580Y-136890476D01*
X75559580Y-136890476D02*
X75607200Y-136842857D01*
X75607200Y-136842857D02*
X75654819Y-136747619D01*
X75654819Y-136747619D02*
X75654819Y-136652381D01*
X75654819Y-136652381D02*
X75607200Y-136557143D01*
X75607200Y-136557143D02*
X75559580Y-136509524D01*
X75559580Y-136509524D02*
X75464342Y-136461905D01*
X75464342Y-136461905D02*
X75273866Y-136414286D01*
X75273866Y-136414286D02*
X75035771Y-136414286D01*
X75035771Y-136414286D02*
X74845295Y-136461905D01*
X74845295Y-136461905D02*
X74750057Y-136509524D01*
X74750057Y-136509524D02*
X74702438Y-136557143D01*
X74702438Y-136557143D02*
X74654819Y-136652381D01*
X75654819Y-137938095D02*
X75654819Y-137366667D01*
X75654819Y-137652381D02*
X74654819Y-137652381D01*
X74654819Y-137652381D02*
X74797676Y-137557143D01*
X74797676Y-137557143D02*
X74892914Y-137461905D01*
X74892914Y-137461905D02*
X74940533Y-137366667D01*
X79769047Y-139884819D02*
X80102380Y-139408628D01*
X80340475Y-139884819D02*
X80340475Y-138884819D01*
X80340475Y-138884819D02*
X79959523Y-138884819D01*
X79959523Y-138884819D02*
X79864285Y-138932438D01*
X79864285Y-138932438D02*
X79816666Y-138980057D01*
X79816666Y-138980057D02*
X79769047Y-139075295D01*
X79769047Y-139075295D02*
X79769047Y-139218152D01*
X79769047Y-139218152D02*
X79816666Y-139313390D01*
X79816666Y-139313390D02*
X79864285Y-139361009D01*
X79864285Y-139361009D02*
X79959523Y-139408628D01*
X79959523Y-139408628D02*
X80340475Y-139408628D01*
X79435713Y-138884819D02*
X78769047Y-138884819D01*
X78769047Y-138884819D02*
X79197618Y-139884819D01*
X78197618Y-138884819D02*
X78102380Y-138884819D01*
X78102380Y-138884819D02*
X78007142Y-138932438D01*
X78007142Y-138932438D02*
X77959523Y-138980057D01*
X77959523Y-138980057D02*
X77911904Y-139075295D01*
X77911904Y-139075295D02*
X77864285Y-139265771D01*
X77864285Y-139265771D02*
X77864285Y-139503866D01*
X77864285Y-139503866D02*
X77911904Y-139694342D01*
X77911904Y-139694342D02*
X77959523Y-139789580D01*
X77959523Y-139789580D02*
X78007142Y-139837200D01*
X78007142Y-139837200D02*
X78102380Y-139884819D01*
X78102380Y-139884819D02*
X78197618Y-139884819D01*
X78197618Y-139884819D02*
X78292856Y-139837200D01*
X78292856Y-139837200D02*
X78340475Y-139789580D01*
X78340475Y-139789580D02*
X78388094Y-139694342D01*
X78388094Y-139694342D02*
X78435713Y-139503866D01*
X78435713Y-139503866D02*
X78435713Y-139265771D01*
X78435713Y-139265771D02*
X78388094Y-139075295D01*
X78388094Y-139075295D02*
X78340475Y-138980057D01*
X78340475Y-138980057D02*
X78292856Y-138932438D01*
X78292856Y-138932438D02*
X78197618Y-138884819D01*
X77292856Y-139313390D02*
X77388094Y-139265771D01*
X77388094Y-139265771D02*
X77435713Y-139218152D01*
X77435713Y-139218152D02*
X77483332Y-139122914D01*
X77483332Y-139122914D02*
X77483332Y-139075295D01*
X77483332Y-139075295D02*
X77435713Y-138980057D01*
X77435713Y-138980057D02*
X77388094Y-138932438D01*
X77388094Y-138932438D02*
X77292856Y-138884819D01*
X77292856Y-138884819D02*
X77102380Y-138884819D01*
X77102380Y-138884819D02*
X77007142Y-138932438D01*
X77007142Y-138932438D02*
X76959523Y-138980057D01*
X76959523Y-138980057D02*
X76911904Y-139075295D01*
X76911904Y-139075295D02*
X76911904Y-139122914D01*
X76911904Y-139122914D02*
X76959523Y-139218152D01*
X76959523Y-139218152D02*
X77007142Y-139265771D01*
X77007142Y-139265771D02*
X77102380Y-139313390D01*
X77102380Y-139313390D02*
X77292856Y-139313390D01*
X77292856Y-139313390D02*
X77388094Y-139361009D01*
X77388094Y-139361009D02*
X77435713Y-139408628D01*
X77435713Y-139408628D02*
X77483332Y-139503866D01*
X77483332Y-139503866D02*
X77483332Y-139694342D01*
X77483332Y-139694342D02*
X77435713Y-139789580D01*
X77435713Y-139789580D02*
X77388094Y-139837200D01*
X77388094Y-139837200D02*
X77292856Y-139884819D01*
X77292856Y-139884819D02*
X77102380Y-139884819D01*
X77102380Y-139884819D02*
X77007142Y-139837200D01*
X77007142Y-139837200D02*
X76959523Y-139789580D01*
X76959523Y-139789580D02*
X76911904Y-139694342D01*
X76911904Y-139694342D02*
X76911904Y-139503866D01*
X76911904Y-139503866D02*
X76959523Y-139408628D01*
X76959523Y-139408628D02*
X77007142Y-139361009D01*
X77007142Y-139361009D02*
X77102380Y-139313390D01*
X115359580Y-132404761D02*
X115407200Y-132357142D01*
X115407200Y-132357142D02*
X115454819Y-132214285D01*
X115454819Y-132214285D02*
X115454819Y-132119047D01*
X115454819Y-132119047D02*
X115407200Y-131976190D01*
X115407200Y-131976190D02*
X115311961Y-131880952D01*
X115311961Y-131880952D02*
X115216723Y-131833333D01*
X115216723Y-131833333D02*
X115026247Y-131785714D01*
X115026247Y-131785714D02*
X114883390Y-131785714D01*
X114883390Y-131785714D02*
X114692914Y-131833333D01*
X114692914Y-131833333D02*
X114597676Y-131880952D01*
X114597676Y-131880952D02*
X114502438Y-131976190D01*
X114502438Y-131976190D02*
X114454819Y-132119047D01*
X114454819Y-132119047D02*
X114454819Y-132214285D01*
X114454819Y-132214285D02*
X114502438Y-132357142D01*
X114502438Y-132357142D02*
X114550057Y-132404761D01*
X115454819Y-133357142D02*
X115454819Y-132785714D01*
X115454819Y-133071428D02*
X114454819Y-133071428D01*
X114454819Y-133071428D02*
X114597676Y-132976190D01*
X114597676Y-132976190D02*
X114692914Y-132880952D01*
X114692914Y-132880952D02*
X114740533Y-132785714D01*
X114454819Y-133976190D02*
X114454819Y-134071428D01*
X114454819Y-134071428D02*
X114502438Y-134166666D01*
X114502438Y-134166666D02*
X114550057Y-134214285D01*
X114550057Y-134214285D02*
X114645295Y-134261904D01*
X114645295Y-134261904D02*
X114835771Y-134309523D01*
X114835771Y-134309523D02*
X115073866Y-134309523D01*
X115073866Y-134309523D02*
X115264342Y-134261904D01*
X115264342Y-134261904D02*
X115359580Y-134214285D01*
X115359580Y-134214285D02*
X115407200Y-134166666D01*
X115407200Y-134166666D02*
X115454819Y-134071428D01*
X115454819Y-134071428D02*
X115454819Y-133976190D01*
X115454819Y-133976190D02*
X115407200Y-133880952D01*
X115407200Y-133880952D02*
X115359580Y-133833333D01*
X115359580Y-133833333D02*
X115264342Y-133785714D01*
X115264342Y-133785714D02*
X115073866Y-133738095D01*
X115073866Y-133738095D02*
X114835771Y-133738095D01*
X114835771Y-133738095D02*
X114645295Y-133785714D01*
X114645295Y-133785714D02*
X114550057Y-133833333D01*
X114550057Y-133833333D02*
X114502438Y-133880952D01*
X114502438Y-133880952D02*
X114454819Y-133976190D01*
X114454819Y-134928571D02*
X114454819Y-135023809D01*
X114454819Y-135023809D02*
X114502438Y-135119047D01*
X114502438Y-135119047D02*
X114550057Y-135166666D01*
X114550057Y-135166666D02*
X114645295Y-135214285D01*
X114645295Y-135214285D02*
X114835771Y-135261904D01*
X114835771Y-135261904D02*
X115073866Y-135261904D01*
X115073866Y-135261904D02*
X115264342Y-135214285D01*
X115264342Y-135214285D02*
X115359580Y-135166666D01*
X115359580Y-135166666D02*
X115407200Y-135119047D01*
X115407200Y-135119047D02*
X115454819Y-135023809D01*
X115454819Y-135023809D02*
X115454819Y-134928571D01*
X115454819Y-134928571D02*
X115407200Y-134833333D01*
X115407200Y-134833333D02*
X115359580Y-134785714D01*
X115359580Y-134785714D02*
X115264342Y-134738095D01*
X115264342Y-134738095D02*
X115073866Y-134690476D01*
X115073866Y-134690476D02*
X114835771Y-134690476D01*
X114835771Y-134690476D02*
X114645295Y-134738095D01*
X114645295Y-134738095D02*
X114550057Y-134785714D01*
X114550057Y-134785714D02*
X114502438Y-134833333D01*
X114502438Y-134833333D02*
X114454819Y-134928571D01*
X114454819Y-135595238D02*
X114454819Y-136261904D01*
X114454819Y-136261904D02*
X115454819Y-135833333D01*
X79919047Y-129054819D02*
X80252380Y-128578628D01*
X80490475Y-129054819D02*
X80490475Y-128054819D01*
X80490475Y-128054819D02*
X80109523Y-128054819D01*
X80109523Y-128054819D02*
X80014285Y-128102438D01*
X80014285Y-128102438D02*
X79966666Y-128150057D01*
X79966666Y-128150057D02*
X79919047Y-128245295D01*
X79919047Y-128245295D02*
X79919047Y-128388152D01*
X79919047Y-128388152D02*
X79966666Y-128483390D01*
X79966666Y-128483390D02*
X80014285Y-128531009D01*
X80014285Y-128531009D02*
X80109523Y-128578628D01*
X80109523Y-128578628D02*
X80490475Y-128578628D01*
X79585713Y-128054819D02*
X78919047Y-128054819D01*
X78919047Y-128054819D02*
X79347618Y-129054819D01*
X78347618Y-128054819D02*
X78252380Y-128054819D01*
X78252380Y-128054819D02*
X78157142Y-128102438D01*
X78157142Y-128102438D02*
X78109523Y-128150057D01*
X78109523Y-128150057D02*
X78061904Y-128245295D01*
X78061904Y-128245295D02*
X78014285Y-128435771D01*
X78014285Y-128435771D02*
X78014285Y-128673866D01*
X78014285Y-128673866D02*
X78061904Y-128864342D01*
X78061904Y-128864342D02*
X78109523Y-128959580D01*
X78109523Y-128959580D02*
X78157142Y-129007200D01*
X78157142Y-129007200D02*
X78252380Y-129054819D01*
X78252380Y-129054819D02*
X78347618Y-129054819D01*
X78347618Y-129054819D02*
X78442856Y-129007200D01*
X78442856Y-129007200D02*
X78490475Y-128959580D01*
X78490475Y-128959580D02*
X78538094Y-128864342D01*
X78538094Y-128864342D02*
X78585713Y-128673866D01*
X78585713Y-128673866D02*
X78585713Y-128435771D01*
X78585713Y-128435771D02*
X78538094Y-128245295D01*
X78538094Y-128245295D02*
X78490475Y-128150057D01*
X78490475Y-128150057D02*
X78442856Y-128102438D01*
X78442856Y-128102438D02*
X78347618Y-128054819D01*
X77109523Y-128054819D02*
X77585713Y-128054819D01*
X77585713Y-128054819D02*
X77633332Y-128531009D01*
X77633332Y-128531009D02*
X77585713Y-128483390D01*
X77585713Y-128483390D02*
X77490475Y-128435771D01*
X77490475Y-128435771D02*
X77252380Y-128435771D01*
X77252380Y-128435771D02*
X77157142Y-128483390D01*
X77157142Y-128483390D02*
X77109523Y-128531009D01*
X77109523Y-128531009D02*
X77061904Y-128626247D01*
X77061904Y-128626247D02*
X77061904Y-128864342D01*
X77061904Y-128864342D02*
X77109523Y-128959580D01*
X77109523Y-128959580D02*
X77157142Y-129007200D01*
X77157142Y-129007200D02*
X77252380Y-129054819D01*
X77252380Y-129054819D02*
X77490475Y-129054819D01*
X77490475Y-129054819D02*
X77585713Y-129007200D01*
X77585713Y-129007200D02*
X77633332Y-128959580D01*
X71519047Y-137254819D02*
X71852380Y-136778628D01*
X72090475Y-137254819D02*
X72090475Y-136254819D01*
X72090475Y-136254819D02*
X71709523Y-136254819D01*
X71709523Y-136254819D02*
X71614285Y-136302438D01*
X71614285Y-136302438D02*
X71566666Y-136350057D01*
X71566666Y-136350057D02*
X71519047Y-136445295D01*
X71519047Y-136445295D02*
X71519047Y-136588152D01*
X71519047Y-136588152D02*
X71566666Y-136683390D01*
X71566666Y-136683390D02*
X71614285Y-136731009D01*
X71614285Y-136731009D02*
X71709523Y-136778628D01*
X71709523Y-136778628D02*
X72090475Y-136778628D01*
X71185713Y-136254819D02*
X70519047Y-136254819D01*
X70519047Y-136254819D02*
X70947618Y-137254819D01*
X69614285Y-137254819D02*
X70185713Y-137254819D01*
X69899999Y-137254819D02*
X69899999Y-136254819D01*
X69899999Y-136254819D02*
X69995237Y-136397676D01*
X69995237Y-136397676D02*
X70090475Y-136492914D01*
X70090475Y-136492914D02*
X70185713Y-136540533D01*
X69233332Y-136350057D02*
X69185713Y-136302438D01*
X69185713Y-136302438D02*
X69090475Y-136254819D01*
X69090475Y-136254819D02*
X68852380Y-136254819D01*
X68852380Y-136254819D02*
X68757142Y-136302438D01*
X68757142Y-136302438D02*
X68709523Y-136350057D01*
X68709523Y-136350057D02*
X68661904Y-136445295D01*
X68661904Y-136445295D02*
X68661904Y-136540533D01*
X68661904Y-136540533D02*
X68709523Y-136683390D01*
X68709523Y-136683390D02*
X69280951Y-137254819D01*
X69280951Y-137254819D02*
X68661904Y-137254819D01*
X60319047Y-108454819D02*
X60652380Y-107978628D01*
X60890475Y-108454819D02*
X60890475Y-107454819D01*
X60890475Y-107454819D02*
X60509523Y-107454819D01*
X60509523Y-107454819D02*
X60414285Y-107502438D01*
X60414285Y-107502438D02*
X60366666Y-107550057D01*
X60366666Y-107550057D02*
X60319047Y-107645295D01*
X60319047Y-107645295D02*
X60319047Y-107788152D01*
X60319047Y-107788152D02*
X60366666Y-107883390D01*
X60366666Y-107883390D02*
X60414285Y-107931009D01*
X60414285Y-107931009D02*
X60509523Y-107978628D01*
X60509523Y-107978628D02*
X60890475Y-107978628D01*
X59985713Y-107454819D02*
X59366666Y-107454819D01*
X59366666Y-107454819D02*
X59699999Y-107835771D01*
X59699999Y-107835771D02*
X59557142Y-107835771D01*
X59557142Y-107835771D02*
X59461904Y-107883390D01*
X59461904Y-107883390D02*
X59414285Y-107931009D01*
X59414285Y-107931009D02*
X59366666Y-108026247D01*
X59366666Y-108026247D02*
X59366666Y-108264342D01*
X59366666Y-108264342D02*
X59414285Y-108359580D01*
X59414285Y-108359580D02*
X59461904Y-108407200D01*
X59461904Y-108407200D02*
X59557142Y-108454819D01*
X59557142Y-108454819D02*
X59842856Y-108454819D01*
X59842856Y-108454819D02*
X59938094Y-108407200D01*
X59938094Y-108407200D02*
X59985713Y-108359580D01*
X58747618Y-107454819D02*
X58652380Y-107454819D01*
X58652380Y-107454819D02*
X58557142Y-107502438D01*
X58557142Y-107502438D02*
X58509523Y-107550057D01*
X58509523Y-107550057D02*
X58461904Y-107645295D01*
X58461904Y-107645295D02*
X58414285Y-107835771D01*
X58414285Y-107835771D02*
X58414285Y-108073866D01*
X58414285Y-108073866D02*
X58461904Y-108264342D01*
X58461904Y-108264342D02*
X58509523Y-108359580D01*
X58509523Y-108359580D02*
X58557142Y-108407200D01*
X58557142Y-108407200D02*
X58652380Y-108454819D01*
X58652380Y-108454819D02*
X58747618Y-108454819D01*
X58747618Y-108454819D02*
X58842856Y-108407200D01*
X58842856Y-108407200D02*
X58890475Y-108359580D01*
X58890475Y-108359580D02*
X58938094Y-108264342D01*
X58938094Y-108264342D02*
X58985713Y-108073866D01*
X58985713Y-108073866D02*
X58985713Y-107835771D01*
X58985713Y-107835771D02*
X58938094Y-107645295D01*
X58938094Y-107645295D02*
X58890475Y-107550057D01*
X58890475Y-107550057D02*
X58842856Y-107502438D01*
X58842856Y-107502438D02*
X58747618Y-107454819D01*
X58033332Y-107550057D02*
X57985713Y-107502438D01*
X57985713Y-107502438D02*
X57890475Y-107454819D01*
X57890475Y-107454819D02*
X57652380Y-107454819D01*
X57652380Y-107454819D02*
X57557142Y-107502438D01*
X57557142Y-107502438D02*
X57509523Y-107550057D01*
X57509523Y-107550057D02*
X57461904Y-107645295D01*
X57461904Y-107645295D02*
X57461904Y-107740533D01*
X57461904Y-107740533D02*
X57509523Y-107883390D01*
X57509523Y-107883390D02*
X58080951Y-108454819D01*
X58080951Y-108454819D02*
X57461904Y-108454819D01*
X89319047Y-135654819D02*
X89652380Y-135178628D01*
X89890475Y-135654819D02*
X89890475Y-134654819D01*
X89890475Y-134654819D02*
X89509523Y-134654819D01*
X89509523Y-134654819D02*
X89414285Y-134702438D01*
X89414285Y-134702438D02*
X89366666Y-134750057D01*
X89366666Y-134750057D02*
X89319047Y-134845295D01*
X89319047Y-134845295D02*
X89319047Y-134988152D01*
X89319047Y-134988152D02*
X89366666Y-135083390D01*
X89366666Y-135083390D02*
X89414285Y-135131009D01*
X89414285Y-135131009D02*
X89509523Y-135178628D01*
X89509523Y-135178628D02*
X89890475Y-135178628D01*
X88985713Y-134654819D02*
X88319047Y-134654819D01*
X88319047Y-134654819D02*
X88747618Y-135654819D01*
X87747618Y-134654819D02*
X87652380Y-134654819D01*
X87652380Y-134654819D02*
X87557142Y-134702438D01*
X87557142Y-134702438D02*
X87509523Y-134750057D01*
X87509523Y-134750057D02*
X87461904Y-134845295D01*
X87461904Y-134845295D02*
X87414285Y-135035771D01*
X87414285Y-135035771D02*
X87414285Y-135273866D01*
X87414285Y-135273866D02*
X87461904Y-135464342D01*
X87461904Y-135464342D02*
X87509523Y-135559580D01*
X87509523Y-135559580D02*
X87557142Y-135607200D01*
X87557142Y-135607200D02*
X87652380Y-135654819D01*
X87652380Y-135654819D02*
X87747618Y-135654819D01*
X87747618Y-135654819D02*
X87842856Y-135607200D01*
X87842856Y-135607200D02*
X87890475Y-135559580D01*
X87890475Y-135559580D02*
X87938094Y-135464342D01*
X87938094Y-135464342D02*
X87985713Y-135273866D01*
X87985713Y-135273866D02*
X87985713Y-135035771D01*
X87985713Y-135035771D02*
X87938094Y-134845295D01*
X87938094Y-134845295D02*
X87890475Y-134750057D01*
X87890475Y-134750057D02*
X87842856Y-134702438D01*
X87842856Y-134702438D02*
X87747618Y-134654819D01*
X87033332Y-134750057D02*
X86985713Y-134702438D01*
X86985713Y-134702438D02*
X86890475Y-134654819D01*
X86890475Y-134654819D02*
X86652380Y-134654819D01*
X86652380Y-134654819D02*
X86557142Y-134702438D01*
X86557142Y-134702438D02*
X86509523Y-134750057D01*
X86509523Y-134750057D02*
X86461904Y-134845295D01*
X86461904Y-134845295D02*
X86461904Y-134940533D01*
X86461904Y-134940533D02*
X86509523Y-135083390D01*
X86509523Y-135083390D02*
X87080951Y-135654819D01*
X87080951Y-135654819D02*
X86461904Y-135654819D01*
X61919047Y-135054819D02*
X62252380Y-134578628D01*
X62490475Y-135054819D02*
X62490475Y-134054819D01*
X62490475Y-134054819D02*
X62109523Y-134054819D01*
X62109523Y-134054819D02*
X62014285Y-134102438D01*
X62014285Y-134102438D02*
X61966666Y-134150057D01*
X61966666Y-134150057D02*
X61919047Y-134245295D01*
X61919047Y-134245295D02*
X61919047Y-134388152D01*
X61919047Y-134388152D02*
X61966666Y-134483390D01*
X61966666Y-134483390D02*
X62014285Y-134531009D01*
X62014285Y-134531009D02*
X62109523Y-134578628D01*
X62109523Y-134578628D02*
X62490475Y-134578628D01*
X61585713Y-134054819D02*
X60919047Y-134054819D01*
X60919047Y-134054819D02*
X61347618Y-135054819D01*
X60014285Y-135054819D02*
X60585713Y-135054819D01*
X60299999Y-135054819D02*
X60299999Y-134054819D01*
X60299999Y-134054819D02*
X60395237Y-134197676D01*
X60395237Y-134197676D02*
X60490475Y-134292914D01*
X60490475Y-134292914D02*
X60585713Y-134340533D01*
X59680951Y-134054819D02*
X59061904Y-134054819D01*
X59061904Y-134054819D02*
X59395237Y-134435771D01*
X59395237Y-134435771D02*
X59252380Y-134435771D01*
X59252380Y-134435771D02*
X59157142Y-134483390D01*
X59157142Y-134483390D02*
X59109523Y-134531009D01*
X59109523Y-134531009D02*
X59061904Y-134626247D01*
X59061904Y-134626247D02*
X59061904Y-134864342D01*
X59061904Y-134864342D02*
X59109523Y-134959580D01*
X59109523Y-134959580D02*
X59157142Y-135007200D01*
X59157142Y-135007200D02*
X59252380Y-135054819D01*
X59252380Y-135054819D02*
X59538094Y-135054819D01*
X59538094Y-135054819D02*
X59633332Y-135007200D01*
X59633332Y-135007200D02*
X59680951Y-134959580D01*
X96077875Y-151398700D02*
X96125495Y-151351081D01*
X96125495Y-151351081D02*
X96173114Y-151208224D01*
X96173114Y-151208224D02*
X96173114Y-151112986D01*
X96173114Y-151112986D02*
X96125495Y-150970129D01*
X96125495Y-150970129D02*
X96030256Y-150874891D01*
X96030256Y-150874891D02*
X95935018Y-150827272D01*
X95935018Y-150827272D02*
X95744542Y-150779653D01*
X95744542Y-150779653D02*
X95601685Y-150779653D01*
X95601685Y-150779653D02*
X95411209Y-150827272D01*
X95411209Y-150827272D02*
X95315971Y-150874891D01*
X95315971Y-150874891D02*
X95220733Y-150970129D01*
X95220733Y-150970129D02*
X95173114Y-151112986D01*
X95173114Y-151112986D02*
X95173114Y-151208224D01*
X95173114Y-151208224D02*
X95220733Y-151351081D01*
X95220733Y-151351081D02*
X95268352Y-151398700D01*
X96173114Y-152351081D02*
X96173114Y-151779653D01*
X96173114Y-152065367D02*
X95173114Y-152065367D01*
X95173114Y-152065367D02*
X95315971Y-151970129D01*
X95315971Y-151970129D02*
X95411209Y-151874891D01*
X95411209Y-151874891D02*
X95458828Y-151779653D01*
X95173114Y-152970129D02*
X95173114Y-153065367D01*
X95173114Y-153065367D02*
X95220733Y-153160605D01*
X95220733Y-153160605D02*
X95268352Y-153208224D01*
X95268352Y-153208224D02*
X95363590Y-153255843D01*
X95363590Y-153255843D02*
X95554066Y-153303462D01*
X95554066Y-153303462D02*
X95792161Y-153303462D01*
X95792161Y-153303462D02*
X95982637Y-153255843D01*
X95982637Y-153255843D02*
X96077875Y-153208224D01*
X96077875Y-153208224D02*
X96125495Y-153160605D01*
X96125495Y-153160605D02*
X96173114Y-153065367D01*
X96173114Y-153065367D02*
X96173114Y-152970129D01*
X96173114Y-152970129D02*
X96125495Y-152874891D01*
X96125495Y-152874891D02*
X96077875Y-152827272D01*
X96077875Y-152827272D02*
X95982637Y-152779653D01*
X95982637Y-152779653D02*
X95792161Y-152732034D01*
X95792161Y-152732034D02*
X95554066Y-152732034D01*
X95554066Y-152732034D02*
X95363590Y-152779653D01*
X95363590Y-152779653D02*
X95268352Y-152827272D01*
X95268352Y-152827272D02*
X95220733Y-152874891D01*
X95220733Y-152874891D02*
X95173114Y-152970129D01*
X95173114Y-153922510D02*
X95173114Y-154017748D01*
X95173114Y-154017748D02*
X95220733Y-154112986D01*
X95220733Y-154112986D02*
X95268352Y-154160605D01*
X95268352Y-154160605D02*
X95363590Y-154208224D01*
X95363590Y-154208224D02*
X95554066Y-154255843D01*
X95554066Y-154255843D02*
X95792161Y-154255843D01*
X95792161Y-154255843D02*
X95982637Y-154208224D01*
X95982637Y-154208224D02*
X96077875Y-154160605D01*
X96077875Y-154160605D02*
X96125495Y-154112986D01*
X96125495Y-154112986D02*
X96173114Y-154017748D01*
X96173114Y-154017748D02*
X96173114Y-153922510D01*
X96173114Y-153922510D02*
X96125495Y-153827272D01*
X96125495Y-153827272D02*
X96077875Y-153779653D01*
X96077875Y-153779653D02*
X95982637Y-153732034D01*
X95982637Y-153732034D02*
X95792161Y-153684415D01*
X95792161Y-153684415D02*
X95554066Y-153684415D01*
X95554066Y-153684415D02*
X95363590Y-153732034D01*
X95363590Y-153732034D02*
X95268352Y-153779653D01*
X95268352Y-153779653D02*
X95220733Y-153827272D01*
X95220733Y-153827272D02*
X95173114Y-153922510D01*
X95268352Y-154636796D02*
X95220733Y-154684415D01*
X95220733Y-154684415D02*
X95173114Y-154779653D01*
X95173114Y-154779653D02*
X95173114Y-155017748D01*
X95173114Y-155017748D02*
X95220733Y-155112986D01*
X95220733Y-155112986D02*
X95268352Y-155160605D01*
X95268352Y-155160605D02*
X95363590Y-155208224D01*
X95363590Y-155208224D02*
X95458828Y-155208224D01*
X95458828Y-155208224D02*
X95601685Y-155160605D01*
X95601685Y-155160605D02*
X96173114Y-154589177D01*
X96173114Y-154589177D02*
X96173114Y-155208224D01*
X97254819Y-140404761D02*
X96778628Y-140071428D01*
X97254819Y-139833333D02*
X96254819Y-139833333D01*
X96254819Y-139833333D02*
X96254819Y-140214285D01*
X96254819Y-140214285D02*
X96302438Y-140309523D01*
X96302438Y-140309523D02*
X96350057Y-140357142D01*
X96350057Y-140357142D02*
X96445295Y-140404761D01*
X96445295Y-140404761D02*
X96588152Y-140404761D01*
X96588152Y-140404761D02*
X96683390Y-140357142D01*
X96683390Y-140357142D02*
X96731009Y-140309523D01*
X96731009Y-140309523D02*
X96778628Y-140214285D01*
X96778628Y-140214285D02*
X96778628Y-139833333D01*
X97254819Y-141357142D02*
X97254819Y-140785714D01*
X97254819Y-141071428D02*
X96254819Y-141071428D01*
X96254819Y-141071428D02*
X96397676Y-140976190D01*
X96397676Y-140976190D02*
X96492914Y-140880952D01*
X96492914Y-140880952D02*
X96540533Y-140785714D01*
X96254819Y-141976190D02*
X96254819Y-142071428D01*
X96254819Y-142071428D02*
X96302438Y-142166666D01*
X96302438Y-142166666D02*
X96350057Y-142214285D01*
X96350057Y-142214285D02*
X96445295Y-142261904D01*
X96445295Y-142261904D02*
X96635771Y-142309523D01*
X96635771Y-142309523D02*
X96873866Y-142309523D01*
X96873866Y-142309523D02*
X97064342Y-142261904D01*
X97064342Y-142261904D02*
X97159580Y-142214285D01*
X97159580Y-142214285D02*
X97207200Y-142166666D01*
X97207200Y-142166666D02*
X97254819Y-142071428D01*
X97254819Y-142071428D02*
X97254819Y-141976190D01*
X97254819Y-141976190D02*
X97207200Y-141880952D01*
X97207200Y-141880952D02*
X97159580Y-141833333D01*
X97159580Y-141833333D02*
X97064342Y-141785714D01*
X97064342Y-141785714D02*
X96873866Y-141738095D01*
X96873866Y-141738095D02*
X96635771Y-141738095D01*
X96635771Y-141738095D02*
X96445295Y-141785714D01*
X96445295Y-141785714D02*
X96350057Y-141833333D01*
X96350057Y-141833333D02*
X96302438Y-141880952D01*
X96302438Y-141880952D02*
X96254819Y-141976190D01*
X96254819Y-142928571D02*
X96254819Y-143023809D01*
X96254819Y-143023809D02*
X96302438Y-143119047D01*
X96302438Y-143119047D02*
X96350057Y-143166666D01*
X96350057Y-143166666D02*
X96445295Y-143214285D01*
X96445295Y-143214285D02*
X96635771Y-143261904D01*
X96635771Y-143261904D02*
X96873866Y-143261904D01*
X96873866Y-143261904D02*
X97064342Y-143214285D01*
X97064342Y-143214285D02*
X97159580Y-143166666D01*
X97159580Y-143166666D02*
X97207200Y-143119047D01*
X97207200Y-143119047D02*
X97254819Y-143023809D01*
X97254819Y-143023809D02*
X97254819Y-142928571D01*
X97254819Y-142928571D02*
X97207200Y-142833333D01*
X97207200Y-142833333D02*
X97159580Y-142785714D01*
X97159580Y-142785714D02*
X97064342Y-142738095D01*
X97064342Y-142738095D02*
X96873866Y-142690476D01*
X96873866Y-142690476D02*
X96635771Y-142690476D01*
X96635771Y-142690476D02*
X96445295Y-142738095D01*
X96445295Y-142738095D02*
X96350057Y-142785714D01*
X96350057Y-142785714D02*
X96302438Y-142833333D01*
X96302438Y-142833333D02*
X96254819Y-142928571D01*
X96350057Y-143642857D02*
X96302438Y-143690476D01*
X96302438Y-143690476D02*
X96254819Y-143785714D01*
X96254819Y-143785714D02*
X96254819Y-144023809D01*
X96254819Y-144023809D02*
X96302438Y-144119047D01*
X96302438Y-144119047D02*
X96350057Y-144166666D01*
X96350057Y-144166666D02*
X96445295Y-144214285D01*
X96445295Y-144214285D02*
X96540533Y-144214285D01*
X96540533Y-144214285D02*
X96683390Y-144166666D01*
X96683390Y-144166666D02*
X97254819Y-143595238D01*
X97254819Y-143595238D02*
X97254819Y-144214285D01*
X118959580Y-150074891D02*
X119007200Y-150027272D01*
X119007200Y-150027272D02*
X119054819Y-149884415D01*
X119054819Y-149884415D02*
X119054819Y-149789177D01*
X119054819Y-149789177D02*
X119007200Y-149646320D01*
X119007200Y-149646320D02*
X118911961Y-149551082D01*
X118911961Y-149551082D02*
X118816723Y-149503463D01*
X118816723Y-149503463D02*
X118626247Y-149455844D01*
X118626247Y-149455844D02*
X118483390Y-149455844D01*
X118483390Y-149455844D02*
X118292914Y-149503463D01*
X118292914Y-149503463D02*
X118197676Y-149551082D01*
X118197676Y-149551082D02*
X118102438Y-149646320D01*
X118102438Y-149646320D02*
X118054819Y-149789177D01*
X118054819Y-149789177D02*
X118054819Y-149884415D01*
X118054819Y-149884415D02*
X118102438Y-150027272D01*
X118102438Y-150027272D02*
X118150057Y-150074891D01*
X118388152Y-150932034D02*
X119054819Y-150932034D01*
X118007200Y-150693939D02*
X118721485Y-150455844D01*
X118721485Y-150455844D02*
X118721485Y-151074891D01*
X118054819Y-151646320D02*
X118054819Y-151741558D01*
X118054819Y-151741558D02*
X118102438Y-151836796D01*
X118102438Y-151836796D02*
X118150057Y-151884415D01*
X118150057Y-151884415D02*
X118245295Y-151932034D01*
X118245295Y-151932034D02*
X118435771Y-151979653D01*
X118435771Y-151979653D02*
X118673866Y-151979653D01*
X118673866Y-151979653D02*
X118864342Y-151932034D01*
X118864342Y-151932034D02*
X118959580Y-151884415D01*
X118959580Y-151884415D02*
X119007200Y-151836796D01*
X119007200Y-151836796D02*
X119054819Y-151741558D01*
X119054819Y-151741558D02*
X119054819Y-151646320D01*
X119054819Y-151646320D02*
X119007200Y-151551082D01*
X119007200Y-151551082D02*
X118959580Y-151503463D01*
X118959580Y-151503463D02*
X118864342Y-151455844D01*
X118864342Y-151455844D02*
X118673866Y-151408225D01*
X118673866Y-151408225D02*
X118435771Y-151408225D01*
X118435771Y-151408225D02*
X118245295Y-151455844D01*
X118245295Y-151455844D02*
X118150057Y-151503463D01*
X118150057Y-151503463D02*
X118102438Y-151551082D01*
X118102438Y-151551082D02*
X118054819Y-151646320D01*
X118483390Y-152551082D02*
X118435771Y-152455844D01*
X118435771Y-152455844D02*
X118388152Y-152408225D01*
X118388152Y-152408225D02*
X118292914Y-152360606D01*
X118292914Y-152360606D02*
X118245295Y-152360606D01*
X118245295Y-152360606D02*
X118150057Y-152408225D01*
X118150057Y-152408225D02*
X118102438Y-152455844D01*
X118102438Y-152455844D02*
X118054819Y-152551082D01*
X118054819Y-152551082D02*
X118054819Y-152741558D01*
X118054819Y-152741558D02*
X118102438Y-152836796D01*
X118102438Y-152836796D02*
X118150057Y-152884415D01*
X118150057Y-152884415D02*
X118245295Y-152932034D01*
X118245295Y-152932034D02*
X118292914Y-152932034D01*
X118292914Y-152932034D02*
X118388152Y-152884415D01*
X118388152Y-152884415D02*
X118435771Y-152836796D01*
X118435771Y-152836796D02*
X118483390Y-152741558D01*
X118483390Y-152741558D02*
X118483390Y-152551082D01*
X118483390Y-152551082D02*
X118531009Y-152455844D01*
X118531009Y-152455844D02*
X118578628Y-152408225D01*
X118578628Y-152408225D02*
X118673866Y-152360606D01*
X118673866Y-152360606D02*
X118864342Y-152360606D01*
X118864342Y-152360606D02*
X118959580Y-152408225D01*
X118959580Y-152408225D02*
X119007200Y-152455844D01*
X119007200Y-152455844D02*
X119054819Y-152551082D01*
X119054819Y-152551082D02*
X119054819Y-152741558D01*
X119054819Y-152741558D02*
X119007200Y-152836796D01*
X119007200Y-152836796D02*
X118959580Y-152884415D01*
X118959580Y-152884415D02*
X118864342Y-152932034D01*
X118864342Y-152932034D02*
X118673866Y-152932034D01*
X118673866Y-152932034D02*
X118578628Y-152884415D01*
X118578628Y-152884415D02*
X118531009Y-152836796D01*
X118531009Y-152836796D02*
X118483390Y-152741558D01*
X113159580Y-135404761D02*
X113207200Y-135357142D01*
X113207200Y-135357142D02*
X113254819Y-135214285D01*
X113254819Y-135214285D02*
X113254819Y-135119047D01*
X113254819Y-135119047D02*
X113207200Y-134976190D01*
X113207200Y-134976190D02*
X113111961Y-134880952D01*
X113111961Y-134880952D02*
X113016723Y-134833333D01*
X113016723Y-134833333D02*
X112826247Y-134785714D01*
X112826247Y-134785714D02*
X112683390Y-134785714D01*
X112683390Y-134785714D02*
X112492914Y-134833333D01*
X112492914Y-134833333D02*
X112397676Y-134880952D01*
X112397676Y-134880952D02*
X112302438Y-134976190D01*
X112302438Y-134976190D02*
X112254819Y-135119047D01*
X112254819Y-135119047D02*
X112254819Y-135214285D01*
X112254819Y-135214285D02*
X112302438Y-135357142D01*
X112302438Y-135357142D02*
X112350057Y-135404761D01*
X113254819Y-136357142D02*
X113254819Y-135785714D01*
X113254819Y-136071428D02*
X112254819Y-136071428D01*
X112254819Y-136071428D02*
X112397676Y-135976190D01*
X112397676Y-135976190D02*
X112492914Y-135880952D01*
X112492914Y-135880952D02*
X112540533Y-135785714D01*
X112254819Y-136976190D02*
X112254819Y-137071428D01*
X112254819Y-137071428D02*
X112302438Y-137166666D01*
X112302438Y-137166666D02*
X112350057Y-137214285D01*
X112350057Y-137214285D02*
X112445295Y-137261904D01*
X112445295Y-137261904D02*
X112635771Y-137309523D01*
X112635771Y-137309523D02*
X112873866Y-137309523D01*
X112873866Y-137309523D02*
X113064342Y-137261904D01*
X113064342Y-137261904D02*
X113159580Y-137214285D01*
X113159580Y-137214285D02*
X113207200Y-137166666D01*
X113207200Y-137166666D02*
X113254819Y-137071428D01*
X113254819Y-137071428D02*
X113254819Y-136976190D01*
X113254819Y-136976190D02*
X113207200Y-136880952D01*
X113207200Y-136880952D02*
X113159580Y-136833333D01*
X113159580Y-136833333D02*
X113064342Y-136785714D01*
X113064342Y-136785714D02*
X112873866Y-136738095D01*
X112873866Y-136738095D02*
X112635771Y-136738095D01*
X112635771Y-136738095D02*
X112445295Y-136785714D01*
X112445295Y-136785714D02*
X112350057Y-136833333D01*
X112350057Y-136833333D02*
X112302438Y-136880952D01*
X112302438Y-136880952D02*
X112254819Y-136976190D01*
X112254819Y-137928571D02*
X112254819Y-138023809D01*
X112254819Y-138023809D02*
X112302438Y-138119047D01*
X112302438Y-138119047D02*
X112350057Y-138166666D01*
X112350057Y-138166666D02*
X112445295Y-138214285D01*
X112445295Y-138214285D02*
X112635771Y-138261904D01*
X112635771Y-138261904D02*
X112873866Y-138261904D01*
X112873866Y-138261904D02*
X113064342Y-138214285D01*
X113064342Y-138214285D02*
X113159580Y-138166666D01*
X113159580Y-138166666D02*
X113207200Y-138119047D01*
X113207200Y-138119047D02*
X113254819Y-138023809D01*
X113254819Y-138023809D02*
X113254819Y-137928571D01*
X113254819Y-137928571D02*
X113207200Y-137833333D01*
X113207200Y-137833333D02*
X113159580Y-137785714D01*
X113159580Y-137785714D02*
X113064342Y-137738095D01*
X113064342Y-137738095D02*
X112873866Y-137690476D01*
X112873866Y-137690476D02*
X112635771Y-137690476D01*
X112635771Y-137690476D02*
X112445295Y-137738095D01*
X112445295Y-137738095D02*
X112350057Y-137785714D01*
X112350057Y-137785714D02*
X112302438Y-137833333D01*
X112302438Y-137833333D02*
X112254819Y-137928571D01*
X112588152Y-139119047D02*
X113254819Y-139119047D01*
X112207200Y-138880952D02*
X112921485Y-138642857D01*
X112921485Y-138642857D02*
X112921485Y-139261904D01*
X84769047Y-139884819D02*
X85102380Y-139408628D01*
X85340475Y-139884819D02*
X85340475Y-138884819D01*
X85340475Y-138884819D02*
X84959523Y-138884819D01*
X84959523Y-138884819D02*
X84864285Y-138932438D01*
X84864285Y-138932438D02*
X84816666Y-138980057D01*
X84816666Y-138980057D02*
X84769047Y-139075295D01*
X84769047Y-139075295D02*
X84769047Y-139218152D01*
X84769047Y-139218152D02*
X84816666Y-139313390D01*
X84816666Y-139313390D02*
X84864285Y-139361009D01*
X84864285Y-139361009D02*
X84959523Y-139408628D01*
X84959523Y-139408628D02*
X85340475Y-139408628D01*
X84435713Y-138884819D02*
X83769047Y-138884819D01*
X83769047Y-138884819D02*
X84197618Y-139884819D01*
X83197618Y-138884819D02*
X83102380Y-138884819D01*
X83102380Y-138884819D02*
X83007142Y-138932438D01*
X83007142Y-138932438D02*
X82959523Y-138980057D01*
X82959523Y-138980057D02*
X82911904Y-139075295D01*
X82911904Y-139075295D02*
X82864285Y-139265771D01*
X82864285Y-139265771D02*
X82864285Y-139503866D01*
X82864285Y-139503866D02*
X82911904Y-139694342D01*
X82911904Y-139694342D02*
X82959523Y-139789580D01*
X82959523Y-139789580D02*
X83007142Y-139837200D01*
X83007142Y-139837200D02*
X83102380Y-139884819D01*
X83102380Y-139884819D02*
X83197618Y-139884819D01*
X83197618Y-139884819D02*
X83292856Y-139837200D01*
X83292856Y-139837200D02*
X83340475Y-139789580D01*
X83340475Y-139789580D02*
X83388094Y-139694342D01*
X83388094Y-139694342D02*
X83435713Y-139503866D01*
X83435713Y-139503866D02*
X83435713Y-139265771D01*
X83435713Y-139265771D02*
X83388094Y-139075295D01*
X83388094Y-139075295D02*
X83340475Y-138980057D01*
X83340475Y-138980057D02*
X83292856Y-138932438D01*
X83292856Y-138932438D02*
X83197618Y-138884819D01*
X82388094Y-139884819D02*
X82197618Y-139884819D01*
X82197618Y-139884819D02*
X82102380Y-139837200D01*
X82102380Y-139837200D02*
X82054761Y-139789580D01*
X82054761Y-139789580D02*
X81959523Y-139646723D01*
X81959523Y-139646723D02*
X81911904Y-139456247D01*
X81911904Y-139456247D02*
X81911904Y-139075295D01*
X81911904Y-139075295D02*
X81959523Y-138980057D01*
X81959523Y-138980057D02*
X82007142Y-138932438D01*
X82007142Y-138932438D02*
X82102380Y-138884819D01*
X82102380Y-138884819D02*
X82292856Y-138884819D01*
X82292856Y-138884819D02*
X82388094Y-138932438D01*
X82388094Y-138932438D02*
X82435713Y-138980057D01*
X82435713Y-138980057D02*
X82483332Y-139075295D01*
X82483332Y-139075295D02*
X82483332Y-139313390D01*
X82483332Y-139313390D02*
X82435713Y-139408628D01*
X82435713Y-139408628D02*
X82388094Y-139456247D01*
X82388094Y-139456247D02*
X82292856Y-139503866D01*
X82292856Y-139503866D02*
X82102380Y-139503866D01*
X82102380Y-139503866D02*
X82007142Y-139456247D01*
X82007142Y-139456247D02*
X81959523Y-139408628D01*
X81959523Y-139408628D02*
X81911904Y-139313390D01*
D11*
%TO.C,R711*%
X66077064Y-128690000D02*
X64622936Y-128690000D01*
X66077064Y-130510000D02*
X64622936Y-130510000D01*
%TO.C,R1003*%
X95683295Y-132596003D02*
X95683295Y-131141875D01*
X97503295Y-132596003D02*
X97503295Y-131141875D01*
%TO.C,R707*%
X87922936Y-129490000D02*
X89377064Y-129490000D01*
X87922936Y-131310000D02*
X89377064Y-131310000D01*
%TO.C,R714*%
X66127064Y-136290000D02*
X64672936Y-136290000D01*
X66127064Y-138110000D02*
X64672936Y-138110000D01*
%TO.C,R1004*%
X93283295Y-137796003D02*
X93283295Y-136341875D01*
X95103295Y-137796003D02*
X95103295Y-136341875D01*
%TO.C,R703*%
X77922936Y-131890000D02*
X79377064Y-131890000D01*
X77922936Y-133710000D02*
X79377064Y-133710000D01*
%TO.C,C1006*%
X116090000Y-138273752D02*
X116090000Y-136851248D01*
X117910000Y-138273752D02*
X117910000Y-136851248D01*
%TO.C,R1006*%
X100483295Y-137796003D02*
X100483295Y-136341875D01*
X102303295Y-137796003D02*
X102303295Y-136341875D01*
%TO.C,R1010*%
X98883295Y-144941875D02*
X98883295Y-146396003D01*
X100703295Y-144941875D02*
X100703295Y-146396003D01*
%TO.C,C309*%
X63311252Y-111690000D02*
X61888748Y-111690000D01*
X63311252Y-113510000D02*
X61888748Y-113510000D01*
%TO.C,R1007*%
X100483295Y-132596003D02*
X100483295Y-131141875D01*
X102303295Y-132596003D02*
X102303295Y-131141875D01*
%TO.C,C902*%
X65290000Y-94711252D02*
X65290000Y-93288748D01*
X67110000Y-94711252D02*
X67110000Y-93288748D01*
%TO.C,R303*%
X74272936Y-111090000D02*
X75727064Y-111090000D01*
X74272936Y-112910000D02*
X75727064Y-112910000D01*
%TO.C,R706*%
X82922936Y-129490000D02*
X84377064Y-129490000D01*
X82922936Y-131310000D02*
X84377064Y-131310000D01*
%TO.C,R1009*%
X96258295Y-147921003D02*
X96258295Y-146466875D01*
X98078295Y-147921003D02*
X98078295Y-146466875D01*
%TO.C,R704*%
X82922936Y-131890000D02*
X84377064Y-131890000D01*
X82922936Y-133710000D02*
X84377064Y-133710000D01*
%TO.C,R710*%
X71077064Y-128690000D02*
X69622936Y-128690000D01*
X71077064Y-130510000D02*
X69622936Y-130510000D01*
%TO.C,R1012*%
X108658295Y-151721003D02*
X108658295Y-150266875D01*
X110478295Y-151721003D02*
X110478295Y-150266875D01*
%TO.C,R1008*%
X93683295Y-144941875D02*
X93683295Y-146396003D01*
X95503295Y-144941875D02*
X95503295Y-146396003D01*
%TO.C,R1001*%
X98083295Y-137796003D02*
X98083295Y-136341875D01*
X99903295Y-137796003D02*
X99903295Y-136341875D01*
%TO.C,R402*%
X108858295Y-140666875D02*
X108858295Y-142121003D01*
X110678295Y-140666875D02*
X110678295Y-142121003D01*
%TO.C,U1005*%
X114058295Y-141858939D02*
X114058295Y-143328939D01*
X116278295Y-143193191D02*
X116278295Y-141858939D01*
X116478295Y-143623939D02*
X116288295Y-143483939D01*
X116478295Y-143343939D01*
X116478295Y-143623939D01*
G36*
X116478295Y-143623939D02*
G01*
X116288295Y-143483939D01*
X116478295Y-143343939D01*
X116478295Y-143623939D01*
G37*
%TO.C,C903*%
X68090000Y-94711252D02*
X68090000Y-93288748D01*
X69910000Y-94711252D02*
X69910000Y-93288748D01*
%TO.C,R1005*%
X93283295Y-132646003D02*
X93283295Y-131191875D01*
X95103295Y-132646003D02*
X95103295Y-131191875D01*
%TO.C,R305*%
X73722936Y-117090000D02*
X75177064Y-117090000D01*
X73722936Y-118910000D02*
X75177064Y-118910000D01*
%TO.C,C1005*%
X102458295Y-144905191D02*
X102458295Y-143482687D01*
X104278295Y-144905191D02*
X104278295Y-143482687D01*
%TO.C,C409*%
X112458295Y-150445187D02*
X112458295Y-151867691D01*
X114278295Y-150445187D02*
X114278295Y-151867691D01*
%TO.C,C308*%
X63148752Y-116890000D02*
X61726248Y-116890000D01*
X63148752Y-118710000D02*
X61726248Y-118710000D01*
%TO.C,R701*%
X77922936Y-134290000D02*
X79377064Y-134290000D01*
X77922936Y-136110000D02*
X79377064Y-136110000D01*
%TO.C,R708*%
X77922936Y-136690000D02*
X79377064Y-136690000D01*
X77922936Y-138510000D02*
X79377064Y-138510000D01*
%TO.C,C1007*%
X114290000Y-138608767D02*
X114290000Y-138316233D01*
X115310000Y-138608767D02*
X115310000Y-138316233D01*
%TO.C,R705*%
X77922936Y-129490000D02*
X79377064Y-129490000D01*
X77922936Y-131310000D02*
X79377064Y-131310000D01*
%TO.C,R712*%
X71127064Y-133690000D02*
X69672936Y-133690000D01*
X71127064Y-135510000D02*
X69672936Y-135510000D01*
%TO.C,R302*%
X58472936Y-109290000D02*
X59927064Y-109290000D01*
X58472936Y-111110000D02*
X59927064Y-111110000D01*
%TO.C,R702*%
X82922936Y-134290000D02*
X84377064Y-134290000D01*
X82922936Y-136110000D02*
X84377064Y-136110000D01*
%TO.C,R713*%
X66127064Y-133690000D02*
X64672936Y-133690000D01*
X66127064Y-135510000D02*
X64672936Y-135510000D01*
%TO.C,C1002*%
X96658295Y-152282687D02*
X96658295Y-153705191D01*
X98478295Y-152282687D02*
X98478295Y-153705191D01*
%TO.C,R1002*%
X95683295Y-137796003D02*
X95683295Y-136341875D01*
X97503295Y-137796003D02*
X97503295Y-136341875D01*
%TO.C,C408*%
X115658295Y-150482687D02*
X115658295Y-151905191D01*
X117478295Y-150482687D02*
X117478295Y-151905191D01*
%TO.C,C1004*%
X111658295Y-142905191D02*
X111658295Y-141482687D01*
X113478295Y-142905191D02*
X113478295Y-141482687D01*
%TO.C,R709*%
X82922936Y-136690000D02*
X84377064Y-136690000D01*
X82922936Y-138510000D02*
X84377064Y-138510000D01*
%TD*%
D12*
X40000000Y-60000000D02*
X180000000Y-60000000D01*
X180000000Y-160000000D01*
X40000000Y-160000000D01*
X40000000Y-60000000D01*
M02*
