M48
; DRILL file {KiCad 9.0.7} date 2026-02-04T19:08:22+0100
; FORMAT={-:-/ absolute / metric / decimal}
; #@! TF.CreationDate,2026-02-04T19:08:22+01:00
; #@! TF.GenerationSoftware,Kicad,Pcbnew,9.0.7
; #@! TF.FileFunction,Plated,1,4,PTH
FMAT,2
METRIC
; #@! TA.AperFunction,Plated,PTH,ComponentDrill
T1C0.200
; #@! TA.AperFunction,Plated,PTH,ViaDrill
T2C0.300
; #@! TA.AperFunction,Plated,PTH,ComponentDrill
T3C0.600
; #@! TA.AperFunction,Plated,PTH,ComponentDrill
T4C0.800
; #@! TA.AperFunction,Plated,PTH,ComponentDrill
T5C0.889
; #@! TA.AperFunction,Plated,PTH,ComponentDrill
T6C0.900
; #@! TA.AperFunction,Plated,PTH,ComponentDrill
T7C1.000
; #@! TA.AperFunction,Plated,PTH,ComponentDrill
T8C1.100
; #@! TA.AperFunction,Plated,PTH,ComponentDrill
T9C1.300
; #@! TA.AperFunction,Plated,PTH,ComponentDrill
T10C2.007
; #@! TA.AperFunction,Plated,PTH,ComponentDrill
T11C3.200
%
G90
G05
T1
X135.14Y-74.34
X135.14Y-75.84
X135.89Y-73.59
X135.89Y-75.09
X135.89Y-76.59
X136.64Y-74.34
X136.64Y-75.84
X137.39Y-73.59
X137.39Y-75.09
X137.39Y-76.59
X138.14Y-74.34
X138.14Y-75.84
T2
X43.8Y-132.2
X43.8Y-148.4
X47.4Y-128.8
X47.6Y-136.6
X50.4Y-136.6
X50.8Y-125.4
X51.2Y-107.2
X51.2Y-111.6
X51.2Y-115.6
X51.2Y-120.0
X51.4Y-155.6
X52.4Y-123.4
X52.4Y-134.4
X53.399Y-138.109
X53.6Y-133.0
X53.8Y-122.4
X54.0Y-78.4
X54.0Y-82.6
X54.0Y-90.0
X54.0Y-115.6
X54.0Y-120.0
X54.2Y-71.2
X54.438Y-144.2
X54.8Y-103.0
X55.2Y-138.8
X55.4Y-100.0
X55.4Y-107.2
X55.4Y-111.4
X55.637Y-142.6
X55.8Y-130.6
X56.8Y-133.4
X57.4Y-138.0
X57.4Y-142.2
X57.6Y-126.6
X57.637Y-108.8
X58.2Y-97.2
X58.2Y-116.2
X58.2Y-120.4
X58.2Y-130.0
X58.4Y-94.6
X58.6Y-148.0
X58.8Y-105.0
X59.4Y-112.8
X59.8Y-90.0
X59.8Y-122.6
X59.8Y-126.6
X59.8Y-144.2
X60.2Y-97.6
X60.2Y-131.4
X60.2Y-135.6
X60.8Y-119.4
X61.2Y-99.8
X61.4Y-101.6
X61.4Y-124.4
X61.4Y-126.8
X61.6Y-141.6
X61.8Y-92.4
X62.2Y-95.8
X62.2Y-110.2
X62.4Y-105.0
X62.4Y-116.6
X62.6Y-112.6
X63.0Y-119.6
X63.8Y-145.6
X64.0Y-71.6
X64.0Y-78.2
X64.0Y-82.6
X64.0Y-95.15
X64.2Y-97.6
X64.4Y-123.0
X64.8Y-96.6
X64.8Y-103.2
X64.8Y-107.4
X65.0Y-149.0
X65.4Y-129.4
X65.4Y-130.4
X65.4Y-133.8
X65.6Y-116.8
X65.98Y-119.795
X66.0Y-104.6
X66.0Y-111.6
X66.2Y-64.8
X66.2Y-90.8
X66.2Y-97.6
X66.2Y-158.4
X66.8Y-147.2
X67.0Y-78.4
X67.0Y-83.2
X67.4Y-99.4
X67.6Y-96.4
X67.6Y-123.4
X67.6Y-125.0
X68.4Y-150.0
X68.6Y-73.45
X68.6Y-112.2
X68.6Y-119.8
X68.6Y-132.2
X68.8Y-66.8
X69.0Y-90.8
X69.0Y-94.0
X69.0Y-97.4
X69.0Y-103.4
X69.8Y-87.6
X69.8Y-113.4
X69.8Y-138.2
X69.8Y-144.2
X70.6Y-101.6
X71.4Y-62.6
X71.4Y-98.8
X71.4Y-106.0
X71.8Y-141.2
X71.8Y-144.6
X72.0Y-110.2
X72.0Y-113.4
X72.6Y-71.6
X72.6Y-148.6
X72.8Y-69.0
X72.8Y-74.2
X73.2Y-122.6
X73.4Y-65.4
X73.4Y-99.6
X73.4Y-103.2
X73.6Y-90.8
X73.6Y-129.6
X73.6Y-134.6
X73.6Y-135.8
X73.8Y-97.0
X73.8Y-132.0
X74.4Y-120.8
X74.6Y-85.6
X74.6Y-146.0
X74.6Y-153.8
X74.8Y-128.4
X75.0Y-69.2
X75.0Y-74.6
X75.0Y-76.2
X75.0Y-110.2
X75.2Y-137.0
X75.4Y-130.4
X75.4Y-132.4
X75.4Y-133.8
X75.6Y-65.4
X76.0Y-119.4
X76.0Y-141.2
X76.2Y-106.4
X76.4Y-115.4
X76.8Y-87.0
X76.8Y-90.8
X77.4Y-62.4
X77.6Y-68.6
X77.6Y-71.8
X78.2Y-112.0
X78.4Y-115.6
X78.4Y-119.8
X78.4Y-126.8
X78.4Y-147.4
X78.4Y-153.8
X78.8Y-124.2
X79.0Y-81.6
X79.2Y-73.8
X79.2Y-76.2
X79.2Y-128.0
X79.6Y-108.4
X79.6Y-111.8
X79.8Y-97.8
X80.0Y-104.8
X80.0Y-141.2
X80.2Y-71.8
X80.6Y-83.2
X80.6Y-90.8
X81.2Y-108.2
X81.8Y-107.0
X81.8Y-110.0
X81.8Y-151.6
X82.0Y-68.4
X82.2Y-147.4
X82.4Y-121.6
X82.4Y-128.0
X83.0Y-73.8
X83.0Y-76.2
X83.2Y-93.0
X83.6Y-141.2
X83.8Y-70.0
X84.0Y-114.6
X85.2Y-95.0
X85.4Y-97.0
X85.6Y-105.2
X85.8Y-117.0
X85.8Y-127.4
X86.0Y-73.8
X86.0Y-76.2
X86.0Y-78.4
X86.0Y-82.2
X86.0Y-146.8
X86.0Y-150.4
X87.4Y-138.6
X89.0Y-117.0
X89.4Y-97.8
X89.4Y-105.6
X89.4Y-113.4
X89.8Y-136.8
X89.8Y-140.8
X89.8Y-146.8
X89.8Y-150.4
X90.0Y-71.8
X90.0Y-73.8
X90.0Y-76.2
X90.0Y-127.0
X91.0Y-133.4
X91.2Y-144.2
X91.8Y-125.4
X92.8Y-144.2
X93.4Y-137.0
X94.0Y-73.8
X94.0Y-76.2
X94.0Y-78.4
X94.0Y-82.2
X94.0Y-85.0
X95.0Y-140.6
X95.6Y-154.6
X97.2Y-140.6
X97.4Y-127.2
X97.6Y-153.0
X98.0Y-71.8
X98.0Y-73.8
X98.0Y-76.2
X98.0Y-141.6
X98.6Y-140.6
X99.0Y-150.2
X99.2Y-148.6
X99.4Y-154.6
X99.8Y-142.2
X100.0Y-131.8
X100.2Y-140.6
X100.8Y-145.6
X101.8Y-146.2
X102.0Y-73.8
X102.0Y-76.2
X102.0Y-78.4
X102.0Y-82.2
X102.0Y-85.0
X102.0Y-152.8
X103.4Y-141.2
X104.1Y-147.3
X104.2Y-158.4
X104.8Y-113.2
X104.8Y-118.4
X105.0Y-127.4
X105.0Y-132.8
X105.0Y-137.8
X105.0Y-148.4
X105.4Y-144.2
X105.8Y-152.8
X106.0Y-71.8
X106.0Y-73.8
X106.0Y-76.2
X106.75Y-80.25
X106.8Y-126.4
X107.0Y-144.4
X107.4Y-137.2
X107.8Y-154.6
X108.0Y-150.8
X108.2Y-125.0
X108.2Y-138.9
X108.5Y-82.0
X108.6Y-79.0
X108.8Y-75.0
X109.2Y-105.4
X109.4Y-129.0
X109.6Y-136.8
X110.0Y-84.0
X110.0Y-85.0
X110.0Y-86.0
X110.0Y-90.363
X110.2Y-93.8
X110.2Y-111.8
X110.2Y-145.0
X110.4Y-76.8
X110.6Y-146.0
X110.6Y-158.4
X110.8Y-127.6
X110.8Y-148.2
X110.8Y-151.0
X111.0Y-91.2
X111.25Y-81.25
X111.4Y-152.2
X111.6Y-86.0
X111.8Y-119.8
X111.8Y-131.4
X111.8Y-139.0
X112.0Y-102.6
X112.75Y-88.75
X112.8Y-72.2
X112.8Y-91.0
X112.8Y-135.6
X113.0Y-79.25
X113.2Y-130.0
X113.4Y-111.8
X113.6Y-138.6
X113.75Y-83.75
X114.2Y-147.8
X114.2Y-154.6
X114.4Y-71.4
X114.4Y-73.4
X114.6Y-145.4
X115.0Y-146.6
X115.0Y-152.8
X115.2Y-123.2
X115.4Y-81.8
X115.4Y-88.4
X115.8Y-99.0
X115.8Y-145.4
X115.8Y-151.0
X116.0Y-148.4
X116.25Y-86.25
X116.4Y-134.2
X116.6Y-115.0
X117.8Y-132.8
X118.0Y-84.0
X118.2Y-96.6
X118.2Y-152.8
X118.4Y-126.6
X118.4Y-142.2
X118.6Y-139.2
X119.0Y-152.0
X119.2Y-144.2
X119.8Y-136.2
X120.0Y-87.0
X120.0Y-118.4
X120.0Y-134.6
X120.0Y-140.4
X120.6Y-94.4
X121.2Y-140.0
X121.4Y-104.8
X121.4Y-129.6
X121.4Y-154.2
X121.6Y-98.8
X121.75Y-84.25
X122.2Y-143.2
X122.5Y-87.0
X122.8Y-74.8
X123.2Y-121.8
X123.4Y-149.0
X123.5Y-84.25
X123.6Y-140.6
X123.8Y-78.4
X123.8Y-132.0
X124.0Y-134.0
X124.0Y-138.2
X124.2Y-90.6
X124.2Y-102.4
X124.6Y-95.8
X124.75Y-87.0
X124.8Y-99.4
X125.0Y-79.2
X125.2Y-69.4
X125.2Y-149.0
X125.25Y-84.25
X125.4Y-113.4
X125.4Y-150.6
X125.4Y-154.4
X126.0Y-69.4
X126.0Y-80.2
X126.2Y-124.8
X126.6Y-81.2
X126.6Y-97.8
X126.8Y-69.4
X127.0Y-87.4
X127.2Y-84.2
X127.4Y-82.4
X127.6Y-74.8
X127.6Y-105.4
X127.6Y-108.0
X127.6Y-115.6
X128.0Y-145.6
X128.0Y-148.0
X128.6Y-127.2
X129.0Y-87.8
X129.6Y-90.8
X129.6Y-98.6
X129.8Y-140.4
X130.2Y-145.8
X130.6Y-93.8
X130.8Y-129.8
X130.8Y-134.0
X131.0Y-77.0
X131.0Y-80.0
X131.0Y-82.0
X131.0Y-85.4
X132.0Y-74.4
X132.2Y-85.4
X133.0Y-110.2
X133.2Y-69.2
X133.6Y-89.2
X133.6Y-94.0
X134.8Y-105.2
X134.8Y-108.0
X134.8Y-144.0
X135.0Y-80.0
X135.0Y-82.0
X135.4Y-85.4
X135.4Y-152.4
X137.0Y-69.2
X137.6Y-84.4
X139.4Y-156.4
X140.0Y-89.2
X140.0Y-93.8
X140.0Y-102.0
X140.0Y-105.2
X140.0Y-108.0
X140.4Y-80.0
X140.8Y-74.6
X140.8Y-83.4
X141.0Y-147.0
X141.2Y-98.2
X141.6Y-69.2
X142.8Y-81.6
X143.1Y-89.2
X143.3Y-85.7
X144.0Y-84.6
X144.0Y-98.2
X144.2Y-73.6
X144.2Y-74.8
X144.4Y-76.4
X144.7Y-83.1
X145.0Y-89.2
X145.0Y-93.8
X145.0Y-150.8
X145.8Y-142.0
X146.4Y-135.6
X148.6Y-126.2
X148.8Y-72.6
X149.2Y-79.0
X149.8Y-145.8
X150.0Y-135.6
X151.2Y-128.8
X151.4Y-141.0
X151.8Y-143.8
X152.0Y-125.4
X152.7Y-124.7
X152.8Y-143.8
X153.5Y-123.9
X153.8Y-143.8
X154.4Y-123.0
X154.8Y-97.6
X154.8Y-143.8
X156.2Y-124.4
X157.8Y-94.8
X170.0Y-126.0
X170.0Y-130.0
X170.0Y-134.6
X175.8Y-126.0
X175.8Y-130.0
X175.8Y-134.6
T4
X161.0Y-114.153
X161.0Y-117.653
X161.0Y-122.597
X161.0Y-127.597
X161.0Y-144.153
X161.0Y-147.653
X161.2Y-133.2
X161.2Y-138.2
X164.0Y-104.0
X164.0Y-106.5
T5
X62.46Y-144.252
X65.0Y-144.252
X65.0Y-146.792
X67.54Y-144.252
T6
X87.261Y-85.283
X87.261Y-87.823
X87.261Y-90.363
X87.261Y-92.903
X87.261Y-95.443
X87.261Y-97.983
X87.261Y-100.523
X87.261Y-103.063
X87.261Y-105.603
X87.261Y-108.143
X87.261Y-110.683
X87.261Y-113.223
X87.261Y-115.763
X87.261Y-118.303
X89.801Y-85.283
X89.801Y-87.823
X89.801Y-90.363
X91.071Y-120.843
X91.071Y-123.383
X93.611Y-120.843
X93.611Y-123.383
X96.151Y-120.843
X96.151Y-123.383
X98.691Y-120.843
X98.691Y-123.383
X101.231Y-120.843
X101.231Y-123.383
X103.771Y-120.843
X103.771Y-123.383
X105.041Y-85.283
X105.041Y-87.823
X105.041Y-90.363
X105.041Y-92.903
X105.041Y-95.443
X105.041Y-97.983
X107.581Y-85.283
X107.581Y-87.823
X107.581Y-90.363
X107.581Y-92.903
X107.581Y-95.443
X107.581Y-97.983
X107.581Y-100.523
X107.581Y-103.063
X107.581Y-105.603
X107.581Y-108.143
X107.581Y-110.683
X107.581Y-113.223
X107.581Y-115.763
X107.581Y-118.303
T7
X59.725Y-63.25
X62.265Y-63.25
X75.46Y-149.615
X78.0Y-149.615
X80.54Y-149.615
X120.8Y-71.06
X120.8Y-73.6
X120.8Y-76.14
X120.8Y-78.68
X126.11Y-100.735
X126.11Y-103.275
X128.65Y-100.735
X128.65Y-103.275
X131.19Y-100.735
X131.19Y-103.275
X133.73Y-100.735
X133.73Y-103.275
X136.27Y-100.735
X136.27Y-103.275
X138.81Y-100.735
X138.81Y-103.275
X141.35Y-100.735
X141.35Y-103.275
X143.89Y-100.735
X143.89Y-103.275
T8
X52.42Y-68.25
X62.58Y-68.25
T9
X172.968Y-103.75
X172.968Y-108.75
X172.968Y-113.75
X173.0Y-122.4
X173.0Y-127.4
X173.0Y-132.4
X173.0Y-137.4
T10
X59.92Y-153.142
X70.08Y-153.142
T11
X46.0Y-66.0
X46.0Y-154.0
X174.0Y-66.0
X174.0Y-154.0
T3
G00X70.0Y-62.9
M15
G01X70.0Y-62.1
M16
G05
G00X70.0Y-67.23
M15
G01X70.0Y-66.13
M16
G05
G00X78.64Y-62.9
M15
G01X78.64Y-62.1
M16
G05
G00X78.64Y-67.23
M15
G01X78.64Y-66.13
M16
G05
M30
